<svg width="124" height="36" viewBox="0 0 124 36" fill="none" xmlns="http://www.w3.org/2000/svg">
<circle cx="18" cy="18" r="18" fill="#FF7530"/>
<path d="M60.704 9V27.48H55.356L49.616 17.484L48.216 14.74H48.188L48.3 18.156V27.48H44.044V9H49.392L55.132 18.996L56.532 21.74H56.56L56.448 18.324V9H60.704Z" fill="black"/>
<path d="M71.0439 13.2C72.5185 13.2 73.8065 13.4893 74.9079 14.068C76.0279 14.628 76.8959 15.4587 77.5119 16.56C78.1465 17.6427 78.4639 18.9493 78.4639 20.48C78.4639 22.0107 78.1465 23.3267 77.5119 24.428C76.8959 25.5107 76.0279 26.3413 74.9079 26.92C73.8065 27.48 72.5185 27.76 71.0439 27.76C69.6065 27.76 68.3279 27.48 67.2079 26.92C66.0879 26.3413 65.2105 25.5107 64.5759 24.428C63.9599 23.3267 63.6519 22.0107 63.6519 20.48C63.6519 18.9493 63.9599 17.6427 64.5759 16.56C65.2105 15.4587 66.0879 14.628 67.2079 14.068C68.3279 13.4893 69.6065 13.2 71.0439 13.2ZM71.0439 16.588C70.5025 16.588 70.0359 16.7187 69.6439 16.98C69.2519 17.2413 68.9532 17.6613 68.7479 18.24C68.5425 18.8187 68.4399 19.5653 68.4399 20.48C68.4399 21.3947 68.5425 22.1413 68.7479 22.72C68.9532 23.28 69.2519 23.7 69.6439 23.98C70.0359 24.2413 70.5025 24.372 71.0439 24.372C71.6039 24.372 72.0799 24.2413 72.4719 23.98C72.8639 23.7 73.1625 23.28 73.3679 22.72C73.5732 22.1413 73.6759 21.3947 73.6759 20.48C73.6759 19.5653 73.5732 18.8187 73.3679 18.24C73.1625 17.6613 72.8639 17.2413 72.4719 16.98C72.0799 16.7187 71.6039 16.588 71.0439 16.588Z" fill="black"/>
<path d="M86.8842 9.028V22.496C86.8842 23.168 87.0429 23.6533 87.3602 23.952C87.6962 24.232 88.1536 24.372 88.7322 24.372C89.1802 24.372 89.5629 24.3253 89.8802 24.232C90.2162 24.12 90.5149 23.9613 90.7762 23.756L91.2802 26.696C90.8136 27.032 90.2256 27.2933 89.5162 27.48C88.8069 27.6667 88.0789 27.76 87.3322 27.76C86.2682 27.76 85.3442 27.6107 84.5602 27.312C83.7949 27.0133 83.1976 26.5373 82.7682 25.884C82.3576 25.2307 82.1429 24.3627 82.1242 23.28V10.344L86.8842 9.028ZM91.0562 13.48V16.868H79.7162V13.48H91.0562Z" fill="black"/>
<path d="M100.087 27.76C98.5376 27.76 97.1936 27.4707 96.0549 26.892C94.9349 26.3133 94.0669 25.4827 93.4509 24.4C92.8349 23.3173 92.5269 22.0107 92.5269 20.48C92.5269 18.9493 92.8349 17.6427 93.4509 16.56C94.0669 15.4773 94.9255 14.6467 96.0269 14.068C97.1469 13.4893 98.4256 13.2 99.8629 13.2C101.338 13.2 102.588 13.4893 103.615 14.068C104.66 14.628 105.454 15.412 105.995 16.42C106.536 17.4093 106.807 18.548 106.807 19.836C106.807 20.172 106.798 20.508 106.779 20.844C106.76 21.18 106.732 21.46 106.695 21.684H95.6069V19.136H104.595L102.327 20.004C102.327 18.884 102.122 18.0253 101.711 17.428C101.319 16.8307 100.703 16.532 99.8629 16.532C99.2656 16.532 98.7522 16.672 98.3229 16.952C97.9122 17.232 97.5949 17.6707 97.3709 18.268C97.1656 18.8653 97.0629 19.6307 97.0629 20.564C97.0629 21.4787 97.1842 22.2253 97.4269 22.804C97.6696 23.364 98.0149 23.7747 98.4629 24.036C98.9109 24.2787 99.4522 24.4 100.087 24.4C100.796 24.4 101.356 24.26 101.767 23.98C102.196 23.7 102.514 23.308 102.719 22.804L106.527 24.064C106.266 24.8667 105.808 25.548 105.155 26.108C104.52 26.6493 103.755 27.06 102.859 27.34C101.982 27.62 101.058 27.76 100.087 27.76Z" fill="black"/>
<path d="M112.847 13.48L116.263 19.78L117.831 19.64L123.347 27.48H117.887L114.359 21.096H112.707L107.359 13.48H112.847ZM123.235 13.48L117.943 21.04L116.179 20.928L112.511 27.48H107.163L112.791 19.584L114.415 19.808L117.887 13.48H123.235Z" fill="black"/>
<mask id="mask0" mask-type="alpha" maskUnits="userSpaceOnUse" x="0" y="0" width="36" height="36">
<circle cx="18" cy="18" r="18" fill="#FF7530"/>
</mask>
<g mask="url(#mask0)">
<path d="M26.66 9V27.48H21.312L15.572 17.484L14.172 14.74H14.144L14.256 18.156V27.48H10V9H15.348L21.088 18.996L22.488 21.74H22.516L22.404 18.324V9H26.66Z" fill="white"/>
</g>
</svg>
