<svg width="612" height="168" viewBox="0 0 612 168" fill="none" xmlns="http://www.w3.org/2000/svg">
<path opacity="0.07" d="M570.481 47.9597C543.209 31.001 507.786 33.5886 477.303 43.8485C446.82 54.1085 419.078 71.1415 389.003 82.3733C358.928 93.6052 324.085 98.5704 295.34 84.1178C253.222 63.1929 231.374 5.68702 184.579 1.08252C158.542 -1.53184 134.545 14.4082 113.15 29.5366L-26.8785 128.386C-55.5874 148.675 -87.5343 175.262 -85.4488 210.369C-83.2583 247.937 -44.1841 270.426 -9.891 285.902C68.3652 321.543 147.645 357.532 232.047 373.726C316.45 389.921 408.089 384.848 482.68 341.95C552.173 302.022 675.159 113.086 570.481 47.9597Z" fill="#FF7530"/>
</svg>
