<svg width="58" height="60" viewBox="0 0 58 60" fill="none" xmlns="http://www.w3.org/2000/svg">
<path d="M0.750629 29.5047C2.19977 17.862 10.3039 29.8193 12.4961 22.6047C13.8252 18.2308 8.32762 12.8562 10.1928 8.06616C11.7517 4.06268 16.0939 2.98737 20.1971 3.79116C23.5001 4.43815 26.4389 7.8503 29.9107 7.28065C33.5867 6.67749 34.7349 1.83858 38.3916 0.564517C47.7844 -2.70794 52.1891 9.02382 54.5298 15.7864C57.5044 24.3802 60.3306 35.6091 51.1991 41.3216C41.5827 47.3374 35.1172 38.8561 28.948 50.9499C16.7821 74.7999 -1.27718 45.7967 0.750629 29.5047Z" fill="url(#paint0_linear)"/>
<g opacity="0.1">
<path opacity="0.1" d="M51.849 32.9301C51.849 23.7986 46.4914 15.9179 38.7485 12.2586C37.363 11.6039 35.7685 12.63 35.7685 14.1624C35.7685 14.9698 36.2305 15.7088 36.9605 16.0538C43.2822 19.0413 47.6548 25.4742 47.6548 32.9301C47.6548 42.182 40.9208 49.8593 32.0859 51.3296L32.4127 51.0028C33.2255 50.19 33.2507 48.8346 32.4228 48.0371C31.62 47.2637 30.342 47.2728 29.5504 48.0644L25.5487 52.0661C25.1641 52.4507 24.948 52.9724 24.948 53.5163C24.948 54.0603 25.1641 54.5819 25.5487 54.9665L29.5504 58.9682C29.9509 59.3687 30.4757 59.5688 31.0005 59.5688C31.5308 59.5688 32.061 59.3645 32.463 58.9556C33.2584 58.1466 33.2153 56.8327 32.4132 56.0305L31.9701 55.5874C43.1858 54.1312 51.849 44.5419 51.849 32.9301Z" fill="#43419E"/>
<path opacity="0.1" d="M21.0391 49.8065C14.7174 46.819 10.3448 40.3861 10.3448 32.9302C10.3448 23.6784 17.0788 16.0011 25.9137 14.5307L25.5862 14.8583C24.784 15.6604 24.741 16.9743 25.5363 17.7831C25.9382 18.192 26.4686 18.3965 26.999 18.3965C27.5239 18.3965 28.0488 18.1962 28.4491 17.7958L32.4508 13.7941C32.8354 13.4095 33.0514 12.8879 33.0514 12.3439C33.0514 11.7999 32.8353 11.2783 32.4507 10.8937L28.4491 6.8922C27.6574 6.1006 26.3798 6.09134 25.5769 6.86466C24.749 7.66212 24.7741 9.01763 25.5869 9.83056L26.0293 10.2729C14.8138 11.7291 6.15063 21.3185 6.15063 32.9302C6.15063 42.0617 11.5082 49.9424 19.2511 53.6017C20.6367 54.2565 22.2311 53.2304 22.2311 51.6979C22.2311 50.8905 21.7692 50.1515 21.0391 49.8065Z" fill="#43419E"/>
<path opacity="0.1" d="M26.3752 38.5513C26.3752 37.5034 25.5256 36.6537 24.4776 36.6537H22.5104C23.723 35.3973 24.8786 33.9845 25.3924 32.7417C26.1083 31.0092 25.9413 29.0859 24.9455 27.5972C24.0167 26.2083 22.5091 25.4116 20.8094 25.4116C17.9964 25.4116 15.7078 27.7002 15.7078 30.5133C15.7078 31.5612 16.5574 32.4109 17.6054 32.4109C18.6533 32.4109 19.503 31.5613 19.503 30.5133C19.503 29.793 20.0892 29.2069 20.8094 29.2069C21.2388 29.2069 21.569 29.3751 21.791 29.707C22.0766 30.1342 22.1125 30.7415 21.8847 31.2923C21.2925 32.7253 18.331 35.5344 16.4175 37.0715C15.7897 37.5758 15.5482 38.4213 15.8156 39.1809C16.0828 39.9405 16.8001 40.4488 17.6053 40.4488H24.4775C25.5256 40.4489 26.3752 39.5992 26.3752 38.5513Z" fill="#43419E"/>
<path opacity="0.1" d="M31.639 27.3426C31.639 26.295 30.7894 25.4454 29.7417 25.4454C28.6929 25.4454 27.8433 26.295 27.8433 27.3426V32.2516C27.8433 33.2993 28.6929 34.1489 29.7417 34.1489H33.7729V38.5176C33.7729 39.5653 34.6226 40.4149 35.6702 40.4149C36.719 40.4149 37.5686 39.5653 37.5686 38.5176V30.0293C38.2441 30.7241 39.1883 31.1562 40.2338 31.1562C42.2871 31.1562 43.9516 29.4917 43.9516 27.4385C43.9516 25.3852 42.2871 23.7207 40.2338 23.7207C38.7419 23.7207 37.4559 24.6 36.8639 25.8682C36.5377 25.6041 36.1228 25.4454 35.6702 25.4454C34.6226 25.4454 33.7729 26.295 33.7729 27.3426V30.3543H31.639V27.3426Z" fill="#43419E"/>
</g>
<path d="M51.8491 30.0004C51.8491 20.869 46.4915 12.9882 38.7486 9.32891C37.3631 8.67419 35.7686 9.70028 35.7686 11.2327C35.7686 12.0402 36.2306 12.7791 36.9607 13.1241C43.2823 16.1116 47.655 22.5445 47.655 30.0004C47.655 39.2523 40.9209 46.9296 32.086 48.3999L32.4128 48.0731C33.2257 47.2603 33.2509 45.9049 32.4229 45.1074C31.6201 44.334 30.3421 44.3431 29.5505 45.1347L25.5488 49.1365C25.1642 49.5211 24.9481 50.0427 24.9481 50.5867C24.9481 51.1306 25.1642 51.6522 25.5488 52.0368L29.5505 56.0386C29.951 56.439 30.4759 56.6391 31.0006 56.6391C31.5309 56.6391 32.0612 56.4348 32.4631 56.0259C33.2585 55.217 33.2155 53.9031 32.4133 53.1008L31.9702 52.6577C43.1859 51.2015 51.8491 41.6122 51.8491 30.0004Z" fill="white"/>
<path d="M32.4508 7.96419L28.4491 3.96247C27.6573 3.17087 26.3798 3.16173 25.5769 3.93493C24.749 4.73239 24.7741 6.0879 25.5869 6.90083L26.0293 7.34321C14.8138 8.79938 6.15063 18.3887 6.15063 30.0005C6.15063 39.132 11.5082 47.0127 19.2511 50.672C20.6365 51.3267 22.2311 50.3006 22.2311 48.7682C22.2311 47.9607 21.7691 47.2218 21.0391 46.8768C14.7174 43.8893 10.3448 37.4564 10.3448 30.0005C10.3448 20.7486 17.0788 13.0713 25.9137 11.601L25.5862 11.9285C24.784 12.7307 24.741 14.0445 25.5364 14.8534C25.9383 15.2623 26.4687 15.4668 26.9991 15.4668C27.524 15.4668 28.0489 15.2665 28.4492 14.8661L32.4509 10.8643C32.8355 10.4797 33.0515 9.95813 33.0515 9.41415C33.0515 8.8704 32.8354 8.34868 32.4508 7.96419Z" fill="#FF7530"/>
<path d="M31.0009 57.2251C30.2966 57.2251 29.6345 56.9508 29.1364 56.4529L25.1348 52.4511C24.6368 51.9533 24.3624 51.2912 24.3624 50.5867C24.3624 49.8825 24.6366 49.2203 25.1347 48.7224L29.1364 44.7207C30.1454 43.7116 31.8023 43.6958 32.8297 44.6855C33.3322 45.1696 33.6126 45.8289 33.6192 46.5419C33.6222 46.8764 33.5627 47.2071 33.448 47.5163C37.0438 46.6041 40.3014 44.5867 42.7384 41.7376C45.5312 38.4721 47.0691 34.304 47.0691 30.0005C47.0691 26.5096 46.0723 23.1223 44.1864 20.2047C42.3489 17.3621 39.7638 15.097 36.7102 13.6541C35.7822 13.2154 35.1827 12.265 35.1827 11.2328C35.1827 10.3062 35.6506 9.45663 36.4346 8.95999C37.2116 8.46768 38.1702 8.40757 38.9991 8.79932C42.9589 10.6707 46.3115 13.6083 48.6947 17.2946C51.1418 21.0799 52.4352 25.4735 52.4352 30.0005C52.4352 35.7277 50.3466 41.2414 46.5543 45.5258C43.0429 49.493 38.3157 52.1445 33.1464 53.0691C33.8597 54.1051 33.7755 55.5271 32.8811 56.4367C32.3816 56.9451 31.7137 57.2251 31.0009 57.2251ZM31.0015 45.1229C30.6252 45.1229 30.249 45.2653 29.9649 45.5492L25.9632 49.5509C25.6866 49.8276 25.5343 50.1955 25.5343 50.5867C25.5343 50.978 25.6866 51.3459 25.9633 51.6224L29.965 55.6244C30.2417 55.901 30.6097 56.0533 31.001 56.0533C31.3971 56.0533 31.7681 55.8978 32.0457 55.6154C32.607 55.0443 32.5863 54.1024 31.9994 53.5154L31.5563 53.0723C31.3984 52.9144 31.344 52.6805 31.4159 52.4692C31.4879 52.2578 31.6738 52.1057 31.8952 52.077C37.211 51.3867 42.1055 48.7844 45.677 44.7494C49.2794 40.6791 51.2633 35.4413 51.2633 30.0005C51.2633 25.6998 50.0348 21.5261 47.7105 17.9308C45.4461 14.4281 42.2606 11.6369 38.4984 9.85882C38.0279 9.63651 37.5042 9.66956 37.0618 9.94999C36.6191 10.2304 36.3547 10.7099 36.3547 11.2327C36.3547 11.8141 36.6909 12.3485 37.2112 12.5944C40.4622 14.1307 43.2147 16.5423 45.1707 19.5685C47.1794 22.6761 48.2411 26.2833 48.2411 30.0005C48.2411 34.583 46.6032 39.0217 43.6291 42.499C40.6878 45.9381 36.6227 48.2389 32.1825 48.978C31.9309 49.0184 31.6817 48.8944 31.5651 48.6679C31.4486 48.4414 31.4918 48.1656 31.6719 47.9856L31.9987 47.6588C32.2877 47.3697 32.4512 46.9666 32.4474 46.5527C32.4437 46.1568 32.2907 45.7934 32.0166 45.5293C31.735 45.258 31.3682 45.1229 31.0015 45.1229Z" fill="#43419E"/>
<path d="M20.1373 51.4579C19.751 51.4579 19.3634 51.3729 19.0007 51.2015C15.041 49.3301 11.6883 46.3925 9.30521 42.7062C6.8581 38.921 5.5647 34.5274 5.5647 30.0003C5.5647 24.2731 7.6531 18.7594 11.4454 14.4751C14.9574 10.5073 19.6852 7.8556 24.8554 6.93134C24.5451 6.47584 24.3756 5.92763 24.3809 5.369C24.3876 4.65603 24.668 3.99685 25.1705 3.51275C26.1979 2.5231 27.8545 2.53904 28.8636 3.54791L32.8652 7.54974C33.3632 8.04755 33.6376 8.70966 33.6376 9.41408C33.6376 10.1184 33.3633 10.7805 32.8653 11.2784L28.8636 15.2801C28.3655 15.7782 27.7034 16.0525 26.9991 16.0525C26.2863 16.0525 25.6184 15.7724 25.1186 15.264C24.3847 14.5176 24.1965 13.4259 24.5467 12.4858C20.9531 13.3986 17.6972 15.4154 15.2616 18.2633C12.4687 21.5287 10.9307 25.6968 10.9307 30.0003C10.9307 33.4912 11.9275 36.8785 13.8134 39.7961C15.6509 42.6387 18.2361 44.9038 21.2896 46.3468C22.2176 46.7854 22.8172 47.7358 22.8172 48.768C22.8172 49.6946 22.3492 50.5442 21.5653 51.0408C21.1283 51.3176 20.6337 51.4578 20.1373 51.4579ZM26.9985 3.95021C26.6317 3.95021 26.2651 4.08544 25.9835 4.35673C25.7094 4.62076 25.5563 4.98416 25.5526 5.38002C25.5487 5.79404 25.7122 6.1974 26.0013 6.48638L26.4435 6.92865C26.6015 7.0865 26.6559 7.32041 26.5839 7.53169C26.512 7.7431 26.3261 7.89521 26.1046 7.92392C20.7888 8.61427 15.8942 11.2165 12.3228 15.2515C8.72044 19.3217 6.73657 24.5595 6.73657 30.0003C6.73657 34.3011 7.96505 38.4747 10.2893 42.07C12.5538 45.5728 15.7393 48.3639 19.5015 50.142C19.9719 50.3642 20.4956 50.3313 20.9381 50.0508C21.3808 49.7704 21.6452 49.2909 21.6452 48.7681C21.6452 48.1867 21.309 47.6524 20.7887 47.4064C17.5376 45.8702 14.7853 43.4585 12.8292 40.4323C10.8206 37.3247 9.75884 33.7175 9.75884 30.0003C9.75884 25.4178 11.3968 20.9791 14.3709 17.5018C17.3122 14.0627 21.3773 11.7618 25.8175 11.0228C26.0685 10.9815 26.3181 11.1064 26.4349 11.3329C26.5514 11.5594 26.5082 11.8352 26.3281 12.0152L26.0006 12.3427C25.4137 12.9297 25.3928 13.8717 25.9542 14.4426C26.2319 14.7252 26.6029 14.8808 26.999 14.8808C27.3903 14.8808 27.7583 14.7283 28.0349 14.4517L32.0367 10.4499C32.3132 10.1732 32.4656 9.80537 32.4656 9.41408C32.4656 9.02279 32.3132 8.65494 32.0366 8.37837C32.0366 8.37837 32.0366 8.37837 32.0366 8.37826L28.0349 4.37654C27.751 4.09271 27.3747 3.95021 26.9985 3.95021Z" fill="#43419E"/>
<path d="M24.4779 33.724H22.5106C23.7233 32.4676 24.8789 31.0548 25.3926 29.812C26.1085 28.0795 25.9415 26.1562 24.9459 24.6675C24.0171 23.2786 22.5095 22.4819 20.8098 22.4819C17.9968 22.4819 15.7081 24.7705 15.7081 27.5836C15.7081 28.6315 16.5577 29.4812 17.6057 29.4812C18.6536 29.4812 19.5034 28.6316 19.5034 27.5836C19.5034 26.8633 20.0895 26.2772 20.8098 26.2772C21.2391 26.2772 21.5694 26.4454 21.7913 26.7773C22.0769 27.2045 22.1129 27.812 21.8851 28.3626C21.2928 29.7956 18.3314 32.6047 16.4179 34.1419C15.7902 34.6461 15.5486 35.4916 15.8161 36.2512C16.0832 37.0108 16.8007 37.5191 17.6057 37.5191H24.478C25.5259 37.5191 26.3756 36.6695 26.3756 35.6215C26.3754 34.5737 25.5258 33.724 24.4779 33.724Z" fill="white"/>
<path d="M37.5687 24.4129V35.5879C37.5687 36.6355 36.719 37.4852 35.6702 37.4852C34.6226 37.4852 33.773 36.6355 33.773 35.5879V31.2191H29.7417C28.6929 31.2191 27.8433 30.3695 27.8433 29.3219V24.4129C27.8433 23.3652 28.6929 22.5156 29.7417 22.5156C30.7894 22.5156 31.639 23.3652 31.639 24.4129V27.4246H33.773V24.4129C33.773 23.3652 34.6226 22.5156 35.6702 22.5156C36.719 22.5156 37.5687 23.3652 37.5687 24.4129Z" fill="white"/>
<path d="M24.4779 38.1049H22.7558C22.4321 38.1049 22.1698 37.8426 22.1698 37.519C22.1698 37.1953 22.4321 36.933 22.7558 36.933H24.4779C25.2011 36.933 25.7894 36.3446 25.7894 35.6215C25.7894 34.8982 25.201 34.3099 24.4779 34.3099H22.5106C22.2755 34.3099 22.0632 34.1694 21.9713 33.9529C21.8795 33.7365 21.9257 33.4863 22.0891 33.317C23.5059 31.8491 24.4352 30.5945 24.851 29.5882C25.4922 28.0369 25.3455 26.3191 24.4586 24.9931C23.6404 23.7697 22.3104 23.0679 20.8095 23.0679C18.3196 23.0679 16.2939 25.0936 16.2939 27.5835C16.2939 28.3067 16.8822 28.895 17.6055 28.895C18.3288 28.895 18.9171 28.3067 18.9171 27.5835C18.9171 26.54 19.766 25.6911 20.8094 25.6911C21.4374 25.6911 21.9453 25.954 22.2781 26.4513C22.6711 27.0394 22.7278 27.8573 22.4263 28.5865C21.7592 30.2006 18.6118 33.1308 16.7845 34.5986C16.3511 34.9467 16.1839 35.5327 16.3684 36.0567C16.5527 36.581 17.0498 36.9331 17.6054 36.9331H19.3275C19.6511 36.9331 19.9134 37.1954 19.9134 37.5191C19.9134 37.8427 19.6511 38.105 19.3275 38.105H17.6054C16.5534 38.105 15.612 37.4382 15.2629 36.4458C14.9138 35.4534 15.2304 34.344 16.0508 33.6849C18.2109 31.9497 20.8486 29.3359 21.3433 28.1387C21.495 27.772 21.4795 27.3654 21.3039 27.1028C21.2247 26.9843 21.1039 26.863 20.8094 26.863C20.412 26.863 20.0889 27.1862 20.0889 27.5835C20.0889 28.9529 18.9748 30.0669 17.6055 30.0669C16.2361 30.0669 15.1221 28.9528 15.1221 27.5835C15.1221 24.4473 17.6734 21.896 20.8095 21.896C22.7082 21.896 24.3932 22.7873 25.4327 24.3417C26.5374 25.9935 26.7248 28.122 25.9339 30.0358C25.5636 30.9317 24.8629 31.9719 23.8456 33.138H24.4779C25.8473 33.138 26.9613 34.2521 26.9613 35.6215C26.9614 36.9908 25.8473 38.1049 24.4779 38.1049Z" fill="#43419E"/>
<path d="M43.8554 25.3804C44.3276 23.3825 43.0909 21.3802 41.0931 20.9079C39.0952 20.4356 37.0928 21.6724 36.6206 23.6702C36.1483 25.668 37.3851 27.6704 39.3829 28.1427C41.3807 28.6149 43.3831 27.3782 43.8554 25.3804Z" fill="#FF7530"/>
<path d="M40.2337 20.2051C38.7396 20.2051 37.4215 20.9708 36.6496 22.1299C36.3431 21.9979 36.0122 21.9294 35.6706 21.9294C34.3011 21.9294 33.1872 23.0435 33.1872 24.4129V26.8384H32.2249V24.4129C32.2249 23.0435 31.1108 21.9294 29.7415 21.9294C28.3722 21.9294 27.2581 23.0435 27.2581 24.4129V29.322C27.2581 30.6915 28.3722 31.8055 29.7415 31.8055H33.1872V35.5878C33.1872 36.9573 34.3013 38.0712 35.6706 38.0712C37.0399 38.0712 38.154 36.9571 38.154 35.5878V30.4914C38.154 30.1678 37.8918 29.9055 37.5681 29.9055C37.2444 29.9055 36.9821 30.1678 36.9821 30.4914V35.5878C36.9821 36.3111 36.3938 36.8994 35.6706 36.8994C34.9473 36.8994 34.359 36.311 34.359 35.5878V31.2195C34.359 30.8959 34.0968 30.6336 33.7731 30.6336H29.7415C29.0182 30.6336 28.4299 30.0453 28.4299 29.322V24.4129C28.4299 23.6896 29.0183 23.1012 29.7415 23.1012C30.4648 23.1012 31.0531 23.6896 31.0531 24.4129V27.4243C31.0531 27.748 31.3153 28.0102 31.639 28.0102H33.7731C34.0968 28.0102 34.359 27.748 34.359 27.4243V24.4129C34.359 23.6896 34.9474 23.1012 35.6706 23.1012C35.833 23.1012 35.9905 23.1314 36.1384 23.188C36.0038 23.6045 35.9302 24.0481 35.9302 24.5088C35.9302 26.882 37.8608 28.8126 40.2339 28.8126C42.607 28.8126 44.5377 26.882 44.5377 24.5088C44.5376 22.1357 42.6069 20.2051 40.2337 20.2051ZM40.2337 27.6406C38.5069 27.6406 37.1019 26.2357 37.1019 24.5087C37.1019 22.7818 38.5068 21.3768 40.2337 21.3768C41.9607 21.3768 43.3657 22.7817 43.3657 24.5087C43.3657 26.2357 41.9607 27.6406 40.2337 27.6406Z" fill="#43419E"/>
<path d="M41.1467 22.7964C40.8609 22.7964 40.6292 23.0281 40.6292 23.3139V23.9912H39.8385V23.3139C39.8385 23.0281 39.6068 22.7964 39.321 22.7964C39.0351 22.7964 38.8035 23.0281 38.8035 23.3139V25.7037C38.8035 25.9895 39.0351 26.2212 39.321 26.2212C39.6068 26.2212 39.8385 25.9895 39.8385 25.7037V25.0263H40.6292V25.7037C40.6292 25.9895 40.8609 26.2212 41.1467 26.2212C41.4326 26.2212 41.6642 25.9895 41.6642 25.7037V23.3139C41.6642 23.0281 41.4326 22.7964 41.1467 22.7964Z" fill="#43419E"/>
<path d="M52.1617 13.2002C52.0118 13.2002 51.8617 13.143 51.7475 13.0285L51.0484 12.3296L50.3494 13.0285C50.1208 13.2574 49.7495 13.2574 49.5209 13.0285C49.292 12.7997 49.292 12.4287 49.5209 12.2L50.6342 11.0867C50.8628 10.8578 51.2341 10.8578 51.4627 11.0867L52.576 12.2C52.8048 12.4287 52.8048 12.7997 52.576 13.0285C52.4616 13.1429 52.3116 13.2002 52.1617 13.2002Z" fill="#FF7530"/>
<path d="M48.8219 9.64255C48.672 9.64255 48.5219 9.58536 48.4076 9.47087L47.7086 8.77196L47.0096 9.47087C46.7809 9.69973 46.4097 9.69973 46.181 9.47087C45.9522 9.24212 45.9522 8.8711 46.181 8.64235L47.2943 7.52907C47.523 7.30021 47.8942 7.30021 48.1228 7.52907L49.2361 8.64235C49.465 8.8711 49.465 9.24212 49.2361 9.47087C49.1218 9.58536 48.9718 9.64255 48.8219 9.64255Z" fill="#FF7530"/>
<path d="M5.30918 46.5013C4.87406 46.5013 4.43882 46.3357 4.10765 46.0045C3.44507 45.342 3.44507 44.2639 4.10765 43.6014C4.77 42.9388 5.84836 42.9388 6.5107 43.6014C7.17328 44.2639 7.17328 45.342 6.5107 46.0045C6.17953 46.3357 5.74429 46.5013 5.30918 46.5013ZM5.30918 44.2757C5.17418 44.2757 5.03906 44.3272 4.93617 44.4298C4.73062 44.6355 4.73062 44.9701 4.93617 45.1757C5.14195 45.3813 5.47629 45.3813 5.68207 45.1757C5.88761 44.9701 5.88761 44.6355 5.68207 44.4298C5.57929 44.3272 5.44418 44.2757 5.30918 44.2757Z" fill="#FF7530"/>
<path d="M51.0484 48.2006C50.6133 48.2006 50.1781 48.035 49.8469 47.7037C49.1843 47.0412 49.1843 45.9631 49.8469 45.3006C50.5093 44.6381 51.5876 44.6381 52.25 45.3006C52.9125 45.9631 52.9125 47.0412 52.25 47.7037C51.9187 48.035 51.4834 48.2006 51.0484 48.2006ZM51.0484 45.9749C50.9134 45.9749 50.7783 46.0264 50.6754 46.129C50.4699 46.3347 50.4699 46.6693 50.6754 46.8749C50.8812 47.0805 51.2155 47.0805 51.4213 46.8749C51.6269 46.6693 51.6269 46.3347 51.4213 46.129C51.3184 46.0264 51.1834 45.9749 51.0484 45.9749Z" fill="#FF7530"/>
<path d="M11.1079 49.6045C10.958 49.6045 10.8079 49.5473 10.6936 49.4328L9.9946 48.7339L9.29558 49.4328C9.06694 49.6616 8.69569 49.6616 8.46706 49.4328C8.23819 49.204 8.23819 48.833 8.46706 48.6043L9.58034 47.491C9.80898 47.2621 10.1802 47.2621 10.4089 47.491L11.5221 48.6043C11.751 48.833 11.751 49.204 11.5221 49.4328C11.4079 49.5473 11.2579 49.6045 11.1079 49.6045Z" fill="#FF7530"/>
<defs>
<linearGradient id="paint0_linear" x1="44.2731" y1="49.2392" x2="19.7809" y2="17.5985" gradientUnits="userSpaceOnUse">
<stop stop-color="#FFECE2" stop-opacity="0"/>
<stop offset="1" stop-color="#FFCCB2"/>
</linearGradient>
</defs>
</svg>
