<svg width="60" height="60" viewBox="0 0 60 60" fill="none" xmlns="http://www.w3.org/2000/svg">
<path d="M6.18094 3.20526C13.6525 -1.24634 23.3205 -0.999191 30.6582 3.56163C34.7809 6.12405 37.9677 9.81979 41.5815 13.0013C44.7482 15.7891 48.4305 17.7776 51.701 20.408C63.5616 29.9475 62.4299 55.6769 45.7289 59.0946C38.4894 60.576 28.5949 61.0511 24.34 53.9803C20.2829 47.2383 18.9222 40.3416 10.9951 36.7605C8.23266 35.5125 3.61524 35.5754 1.74387 32.8406C-0.617691 29.3893 2.31258 25.8043 3.87575 22.7968C5.8902 18.9209 6.31266 15.0997 4.89516 10.9421C3.68837 7.40175 2.83864 5.81139 6.18094 3.20526Z" fill="url(#paint0_linear)"/>
<path opacity="0.1" d="M51.5408 51.5888L47.2335 45.4484V37.8385H50.1335C50.439 37.8385 50.5992 37.4755 50.3932 37.2499L43.5997 29.8082C43.4603 29.6555 43.2198 29.6555 43.0805 29.8082L39.225 34.0316L39.0104 33.7256C38.0427 32.3461 36.4633 31.5248 34.7783 31.5248H30.8103V19.5563H34.6025V21.2009C34.6025 21.8478 35.1264 22.3728 35.7744 22.3728H41.465C42.1131 22.3728 42.6369 21.8478 42.6369 21.2009V16.0095C42.6369 15.3626 42.1131 14.8376 41.465 14.8376H38.2597V13.1937C38.2597 12.5465 37.7351 12.0218 37.0878 12.0218H30.8103V10.6294C30.8103 10.3057 30.5481 10.0435 30.2244 10.0435C29.9007 10.0435 29.6385 10.3057 29.6385 10.6294V31.5248H27.9354C26.9939 29.5479 24.9781 28.1814 22.6428 28.1814C22.0731 28.1814 21.523 28.2642 21.0022 28.4159V20.9635H23.9023C24.2078 20.9635 24.368 20.6005 24.1619 20.3748L17.3685 12.9331C17.229 12.7804 16.9885 12.7804 16.8492 12.9331L10.0557 20.3748C9.84971 20.6005 10.0098 20.9635 10.3154 20.9635H13.2155V45.4484L8.90799 51.5888C8.36331 52.3654 8.91878 53.4337 9.86741 53.4337H50.5814C51.53 53.4337 52.0855 52.3654 51.5408 51.5888Z" fill="#43419E"/>
<path d="M24.1618 17.5626L17.3684 10.1209C17.2289 9.96817 16.9884 9.96817 16.8491 10.1209L10.0556 17.5626C9.84962 17.7883 10.0097 18.1513 10.3153 18.1513H13.2154V50.6215H21.0022V18.1511H23.9023C24.2078 18.1511 24.3679 17.7882 24.1618 17.5626Z" fill="#FF7530"/>
<path d="M51.5409 48.7763L39.0103 30.9132C38.0426 29.5336 36.4633 28.7124 34.7782 28.7124H25.6708C23.9856 28.7124 22.4063 29.5336 21.4387 30.9132L8.90804 48.7763C8.36324 49.5529 8.91883 50.6212 9.86746 50.6212H50.5814C51.5301 50.6212 52.0855 49.5529 51.5409 48.7763Z" fill="white"/>
<path d="M40.9963 33.7444L39.0103 30.9133C38.0425 29.5338 36.4632 28.7124 34.7782 28.7124H25.6707C23.9857 28.7124 22.4062 29.5338 21.4386 30.9133L19.4525 33.7444H40.9963Z" fill="#FF7530"/>
<path d="M42.6369 13.1968V18.3882C42.6369 19.0351 42.1131 19.5601 41.465 19.5601H35.7744C35.1264 19.5601 34.6025 19.0351 34.6025 18.3882V13.1968C34.6025 12.5499 35.1264 12.0249 35.7744 12.0249H41.465C42.1131 12.0249 42.6369 12.5499 42.6369 13.1968Z" fill="white"/>
<path d="M37.0877 16.7434H30.2244V9.20898H37.0877C37.7349 9.20898 38.2595 9.73363 38.2595 10.3809V15.5716C38.2595 16.2188 37.7349 16.7434 37.0877 16.7434Z" fill="white"/>
<path d="M50.3931 34.4371L43.5996 26.9954C43.4601 26.8427 43.2197 26.8427 43.0803 26.9954L36.2868 34.4371C36.0808 34.6628 36.2409 35.0258 36.5465 35.0258H39.4466V50.621H47.2334V35.0258H50.1335C50.439 35.0258 50.5991 34.6628 50.3931 34.4371Z" fill="white"/>
<path d="M22.6428 37.0874C25.8789 37.0874 28.5022 34.4641 28.5022 31.228C28.5022 27.992 25.8789 25.3687 22.6428 25.3687C19.4068 25.3687 16.7834 27.992 16.7834 31.228C16.7834 34.4641 19.4068 37.0874 22.6428 37.0874Z" fill="white"/>
<path d="M52.0205 48.4397L47.8194 42.4508V35.6118H50.1334C50.5046 35.6118 50.8413 35.3923 50.9911 35.0528C51.1409 34.7132 51.076 34.3165 50.8257 34.0423L48.3012 31.2767C48.083 31.0377 47.7123 31.0208 47.4734 31.239C47.2344 31.4571 47.2174 31.8277 47.4357 32.0667L49.6021 34.4399H47.2334C46.9097 34.4399 46.6474 34.7022 46.6474 35.0258V50.0351H40.0323V35.0258C40.0323 34.7022 39.77 34.4399 39.4464 34.4399H37.0778L43.3398 27.5802L44.8264 29.2085C45.0446 29.4477 45.4153 29.4646 45.6541 29.2461C45.8931 29.0281 45.9101 28.6574 45.6918 28.4183L44.0323 26.6005C43.8551 26.4065 43.6029 26.295 43.34 26.295C43.0772 26.295 42.8248 26.4062 42.6475 26.6004L39.2769 30.2925C38.1896 28.9299 36.5332 28.1262 34.7778 28.1262H30.8103V17.3296H34.0161V18.3881C34.0161 19.3574 34.8047 20.146 35.7739 20.146H41.4654C42.4348 20.146 43.2232 19.3574 43.2232 18.3881V13.1974C43.2232 12.2282 42.4348 11.4396 41.4654 11.4396H38.8455V10.3811C38.8455 9.41182 38.057 8.62326 37.0877 8.62326H30.8103V7.81689C30.8103 7.49322 30.5481 7.23096 30.2244 7.23096C29.9007 7.23096 29.6385 7.49322 29.6385 7.81689V28.1262H28.2906C27.1925 26.1351 25.073 24.7828 22.6428 24.7828C19.0889 24.7828 16.1975 27.6742 16.1975 31.2281C16.1975 32.7696 16.7421 34.186 17.6481 35.2963L13.8012 40.7803V18.1508C13.8012 17.8272 13.5389 17.5649 13.2152 17.5649H10.8467L17.1089 10.7052L23.3709 17.5649H21.0023C20.6787 17.5649 20.4164 17.8272 20.4164 18.1508V21.8127C20.4164 22.1364 20.6787 22.3987 21.0023 22.3987C21.326 22.3987 21.5883 22.1364 21.5883 21.8127V18.7368H23.9023C24.2735 18.7368 24.6102 18.5173 24.76 18.1777C24.9097 17.8381 24.8449 17.4414 24.5946 17.1672L17.801 9.72518C17.6237 9.53123 17.3714 9.42002 17.1088 9.42002C17.1089 9.42002 17.1087 9.42002 17.1088 9.42002C16.846 9.42002 16.5935 9.53135 16.4164 9.72529L9.62284 17.1672C9.37265 17.4414 9.30784 17.8381 9.45761 18.1777C9.60737 18.5173 9.94405 18.7368 10.3153 18.7368H12.6293V42.4508L8.42835 48.4396C8.05019 48.9785 8.00401 49.6761 8.30776 50.2601C8.61151 50.8442 9.20905 51.207 9.86741 51.207H50.5814C51.2396 51.207 51.8373 50.8442 52.141 50.2601C52.4447 49.676 52.3985 48.9784 52.0205 48.4397ZM41.4655 12.6115C41.7886 12.6115 42.0514 12.8744 42.0514 13.1974V18.3881C42.0514 18.7112 41.7886 18.9741 41.4655 18.9741H35.7741C35.451 18.9741 35.1881 18.7112 35.1881 18.3881V17.3296H37.0878C38.0571 17.3296 38.8457 16.541 38.8457 15.5718V12.6115H41.4655ZM37.0877 9.79514C37.4108 9.79514 37.6737 10.058 37.6737 10.3811V15.5718C37.6737 15.8949 37.4108 16.1577 37.0877 16.1577H30.8103V9.79514H37.0877ZM22.6428 25.9547C25.5506 25.9547 27.9163 28.3203 27.9163 31.2281C27.9163 34.136 25.5506 36.5016 22.6428 36.5016C19.7351 36.5016 17.3694 34.136 17.3694 31.2281C17.3694 28.3203 19.735 25.9547 22.6428 25.9547ZM9.34757 49.7195C9.2448 49.5218 9.25991 49.2951 9.38788 49.1126L18.4835 36.1461C19.607 37.0978 21.0586 37.6735 22.6428 37.6735C26.1968 37.6735 29.0882 34.7821 29.0882 31.2281C29.0882 30.556 28.9844 29.9078 28.7926 29.2981H34.7781C36.2387 29.2981 37.6119 29.998 38.4734 31.1731L35.8541 34.0422C35.6039 34.3164 35.5391 34.7131 35.6889 35.0527C35.8386 35.3922 36.1753 35.6117 36.5466 35.6117H38.8605V50.035H9.86741C9.64464 50.0351 9.45034 49.9171 9.34757 49.7195ZM51.1012 49.7195C50.9985 49.9172 50.8042 50.0351 50.5813 50.0351H47.8194V44.4915L51.0609 49.1126C51.0609 49.1125 51.061 49.1126 51.0609 49.1126C51.1888 49.2948 51.204 49.5218 51.1012 49.7195Z" fill="#43419E"/>
<path d="M21.6654 33.5765H21.0405C20.2779 33.5765 19.6573 32.9561 19.6573 32.1935V30.2649C19.6573 29.5022 20.2779 28.8818 21.0405 28.8818H21.6654C22.428 28.8818 23.0484 29.5022 23.0484 30.2649V32.1935C23.0484 32.956 22.428 33.5765 21.6654 33.5765ZM21.0405 30.0536C20.924 30.0536 20.8292 30.1484 20.8292 30.2648V32.1933C20.8292 32.3098 20.924 32.4045 21.0405 32.4045H21.6654C21.7817 32.4045 21.8765 32.3097 21.8765 32.1933V30.2648C21.8765 30.1483 21.7817 30.0536 21.6654 30.0536H21.0405Z" fill="#43419E"/>
<path d="M25.0423 33.5756C24.7186 33.5756 24.4563 33.3132 24.4563 32.9897V30.0527H24.4043C24.0806 30.0527 23.8184 29.7904 23.8184 29.4668C23.8184 29.1432 24.0806 28.8809 24.4043 28.8809H25.0423C25.3659 28.8809 25.6282 29.1432 25.6282 29.4668V32.9897C25.6282 33.3132 25.3659 33.5756 25.0423 33.5756Z" fill="#43419E"/>
<path d="M41.5717 35.4007C41.5717 35.0382 41.8657 34.7441 42.2283 34.7441H42.2434C42.606 34.7441 42.9 35.0382 42.9 35.4007C42.9 35.7633 42.606 36.0573 42.2434 36.0573H42.2283C41.8657 36.0573 41.5717 35.7633 41.5717 35.4007Z" fill="#43419E"/>
<path d="M44.4518 34.7441C44.8143 34.7441 45.1084 35.0382 45.1084 35.4007C45.1084 35.7633 44.8143 36.0573 44.4518 36.0573H44.4366C44.0741 36.0573 43.78 35.7633 43.78 35.4007C43.78 35.0382 44.0741 34.7441 44.4366 34.7441" fill="#43419E"/>
<path d="M41.5717 37.744C41.5717 37.3814 41.8657 37.0874 42.2283 37.0874H42.2434C42.606 37.0874 42.9 37.3814 42.9 37.744C42.9 38.1066 42.606 38.4006 42.2434 38.4006H42.2283C41.8657 38.4005 41.5717 38.1066 41.5717 37.744Z" fill="#43419E"/>
<path d="M41.5717 40.0868C41.5717 39.7242 41.8657 39.4302 42.2283 39.4302H42.2434C42.606 39.4302 42.9 39.7242 42.9 40.0868C42.9 40.4494 42.606 40.7434 42.2434 40.7434H42.2283C41.8657 40.7434 41.5717 40.4494 41.5717 40.0868Z" fill="#43419E"/>
<path d="M15.6373 18.2972C15.6373 17.9346 15.9314 17.6406 16.2939 17.6406H16.309C16.6716 17.6406 16.9657 17.9346 16.9657 18.2972C16.9657 18.6598 16.6716 18.9538 16.309 18.9538H16.2939C15.9314 18.9538 15.6373 18.6598 15.6373 18.2972Z" fill="#43419E"/>
<path d="M18.5174 17.6406C18.88 17.6406 19.174 17.9346 19.174 18.2972C19.174 18.6598 18.88 18.9538 18.5174 18.9538H18.5023C18.1397 18.9538 17.8457 18.6598 17.8457 18.2972C17.8457 17.9346 18.1397 17.6406 18.5023 17.6406" fill="#43419E"/>
<path d="M15.6373 20.6405C15.6373 20.2779 15.9314 19.9839 16.2939 19.9839H16.309C16.6716 19.9839 16.9657 20.2779 16.9657 20.6405C16.9657 21.0031 16.6716 21.2971 16.309 21.2971H16.2939C15.9314 21.2971 15.6373 21.0031 15.6373 20.6405Z" fill="#43419E"/>
<path d="M15.6373 22.9838C15.6373 22.6212 15.9314 22.3271 16.2939 22.3271H16.309C16.6716 22.3271 16.9657 22.6212 16.9657 22.9838C16.9657 23.3463 16.6716 23.6404 16.309 23.6404H16.2939C15.9314 23.6402 15.6373 23.3463 15.6373 22.9838Z" fill="#43419E"/>
<path d="M30.2245 49.0263C33.3118 49.0263 35.8145 46.5236 35.8145 43.4363C35.8145 40.349 33.3118 37.8462 30.2245 37.8462C27.1372 37.8462 24.6344 40.349 24.6344 43.4363C24.6344 46.5236 27.1372 49.0263 30.2245 49.0263Z" fill="#FF7530"/>
<path d="M32.03 45.4821H29.6259C29.7029 45.2983 29.7432 45.0991 29.7432 44.8938V44.0787H30.5721C30.8958 44.0787 31.1581 43.8164 31.1581 43.4927C31.1581 43.169 30.8958 42.9068 30.5721 42.9068H29.7432V42.086C29.7432 41.7023 30.0552 41.3901 30.439 41.3901C30.8227 41.3901 31.1349 41.7022 31.1349 42.086C31.1349 42.4097 31.3972 42.6719 31.7208 42.6719C32.0445 42.6719 32.3068 42.4097 32.3068 42.086C32.3068 41.0562 31.4689 40.2183 30.439 40.2183C29.4092 40.2183 28.5713 41.056 28.5713 42.086V42.9068H28.4188C28.0952 42.9068 27.8329 43.169 27.8329 43.4927C27.8329 43.8164 28.0952 44.0787 28.4188 44.0787H28.5713V44.8938C28.5713 44.9876 28.5347 45.0757 28.4686 45.1419C28.2143 45.3961 28.1391 45.7749 28.2766 46.1071C28.4141 46.4393 28.7353 46.6538 29.0948 46.6538H32.0298C32.3535 46.6538 32.6158 46.3916 32.6158 46.0679C32.6159 45.7445 32.3536 45.4821 32.03 45.4821Z" fill="#43419E"/>
<path d="M16.8875 47.0669H21.2843C21.608 47.0669 21.8703 46.8045 21.8703 46.481C21.8703 46.1574 21.608 45.895 21.2843 45.895H16.8875C16.5638 45.895 16.3015 46.1574 16.3015 46.481C16.3015 46.8045 16.5639 47.0669 16.8875 47.0669Z" fill="#43419E"/>
<path d="M20.7546 44.9883H21.2843C21.608 44.9883 21.8703 44.7259 21.8703 44.4023C21.8703 44.0788 21.608 43.8164 21.2843 43.8164H20.7546C20.431 43.8164 20.1687 44.0788 20.1687 44.4023C20.1687 44.726 20.4311 44.9883 20.7546 44.9883Z" fill="#43419E"/>
<path d="M48.1582 23.3813C48.0083 23.3813 47.8582 23.3241 47.7439 23.2096L47.2207 22.6865L46.6974 23.2096C46.4688 23.4385 46.0975 23.4385 45.8689 23.2096C45.64 22.9809 45.64 22.6099 45.8689 22.3811L46.8064 21.4436C47.035 21.2148 47.4063 21.2148 47.6349 21.4436L48.5724 22.3811C48.8013 22.6099 48.8013 22.9809 48.5724 23.2096C48.4582 23.324 48.3082 23.3813 48.1582 23.3813Z" fill="#FF7530"/>
<path d="M25.6609 7.23096H25.3093V6.8794C25.3093 6.55572 25.0471 6.29346 24.7234 6.29346C24.3997 6.29346 24.1375 6.55572 24.1375 6.8794V7.23096H23.7859C23.4622 7.23096 23.2 7.49322 23.2 7.8169C23.2 8.14057 23.4622 8.40283 23.7859 8.40283H24.1375V8.7544C24.1375 9.07807 24.3997 9.34034 24.7234 9.34034C25.0471 9.34034 25.3093 9.07807 25.3093 8.7544V8.40283H25.6609C25.9846 8.40283 26.2468 8.14057 26.2468 7.8169C26.2468 7.49322 25.9844 7.23096 25.6609 7.23096Z" fill="#FF7530"/>
<path d="M50.0332 17.0547H49.6816V16.7031C49.6816 16.3795 49.4194 16.1172 49.0957 16.1172C48.772 16.1172 48.5098 16.3795 48.5098 16.7031V17.0547H48.1582C47.8345 17.0547 47.5723 17.317 47.5723 17.6406C47.5723 17.9643 47.8345 18.2266 48.1582 18.2266H48.5098V18.5781C48.5098 18.9018 48.772 19.1641 49.0957 19.1641C49.4194 19.1641 49.6816 18.9018 49.6816 18.5781V18.2266H50.0332C50.3569 18.2266 50.6191 17.9643 50.6191 17.6406C50.6191 17.317 50.3569 17.0547 50.0332 17.0547Z" fill="#FF7530"/>
<path d="M9.81735 41.7754C9.66747 41.7754 9.51735 41.7182 9.40309 41.6037L8.87985 41.0806L8.35661 41.6037C8.12798 41.8325 7.75673 41.8325 7.5281 41.6037C7.29923 41.3749 7.29923 41.0039 7.5281 40.7752L8.46559 39.8377C8.69423 39.6088 9.06548 39.6088 9.29411 39.8377L10.2316 40.7752C10.4605 41.0039 10.4605 41.3749 10.2316 41.6037C10.1174 41.7182 9.96735 41.7754 9.81735 41.7754Z" fill="#FF7530"/>
<path d="M9.81735 37.4839C9.66747 37.4839 9.51735 37.4267 9.40309 37.3122L8.87985 36.7891L8.35661 37.3122C8.12798 37.541 7.75673 37.541 7.5281 37.3122C7.29923 37.0834 7.29923 36.7124 7.5281 36.4837L8.46559 35.5462C8.69423 35.3173 9.06548 35.3173 9.29411 35.5462L10.2316 36.4837C10.4605 36.7124 10.4605 37.0834 10.2316 37.3122C10.1174 37.4267 9.96735 37.4839 9.81735 37.4839Z" fill="#FF7530"/>
<defs>
<linearGradient id="paint0_linear" x1="59.592" y1="29.9999" x2="0.857348" y2="29.9999" gradientUnits="userSpaceOnUse">
<stop stop-color="#FFECE2" stop-opacity="0"/>
<stop offset="1" stop-color="#FFCCB3"/>
</linearGradient>
</defs>
</svg>
