<svg width="60" height="52" viewBox="0 0 60 52" fill="none" xmlns="http://www.w3.org/2000/svg">
<path d="M42.7527 2.47051C34.6553 -0.697655 23.4421 0.505979 17.2454 6.16309C12.8701 10.1574 16.2565 11.2959 19.2395 18.6049C21.3984 23.8947 0 23.1667 0 32.7254C0 43.7761 15.4982 41.6813 21.2495 42.9463C30.0428 44.8803 37.7139 52.1152 47.109 51.1615C55.2881 50.3311 58.4062 43.9128 59.5437 36.555C61.6627 22.8468 56.4582 7.83301 42.7527 2.47051Z" fill="url(#paint0_linear)"/>
<path opacity="0.11" d="M50.8382 14.0615V43.642C50.8382 45.0014 49.7366 46.1029 48.3773 46.1029H6.70068C5.34131 46.1029 4.23975 45.0014 4.23975 43.642V14.0615C4.23975 12.7021 5.34131 11.6006 6.70068 11.6006H48.3773C49.7366 11.6006 50.8382 12.7021 50.8382 14.0615Z" fill="#43419E"/>
<path d="M53.2991 11.6006V41.181C53.2991 42.5404 52.1976 43.642 50.8382 43.642H9.16162C7.80225 43.642 6.70068 42.5404 6.70068 41.181V11.6006C6.70068 10.2412 7.80225 9.13965 9.16162 9.13965H50.8382C52.1976 9.13965 53.2991 10.2412 53.2991 11.6006Z" fill="white"/>
<path d="M42.3047 18.2813V29.6191C42.3047 29.9426 42.0422 30.2051 41.7188 30.2051H18.2812C17.9578 30.2051 17.6953 29.9426 17.6953 29.6191V18.2813C17.6953 17.9578 17.9578 17.6953 18.2812 17.6953H41.7188C42.0422 17.6953 42.3047 17.9578 42.3047 18.2813Z" fill="#FF7530"/>
<path d="M23.9165 43.6416C23.9165 40.2818 26.6402 37.5581 30.0001 37.5581C33.3599 37.5581 36.0836 40.2818 36.0836 43.6416H23.9165Z" fill="white"/>
<path d="M53.2991 11.6006V15.4924H6.70068V11.6006C6.70068 10.2412 7.80225 9.13965 9.16162 9.13965H50.8382C52.1976 9.13965 53.2991 10.2412 53.2991 11.6006Z" fill="#FF7530"/>
<path d="M10.7618 13.0982C11.1236 13.0982 11.4168 12.805 11.4168 12.4432C11.4168 12.0814 11.1236 11.7881 10.7618 11.7881C10.4 11.7881 10.1067 12.0814 10.1067 12.4432C10.1067 12.805 10.4 13.0982 10.7618 13.0982Z" fill="white"/>
<path d="M13.095 13.0982C13.4568 13.0982 13.7501 12.805 13.7501 12.4432C13.7501 12.0814 13.4568 11.7881 13.095 11.7881C12.7332 11.7881 12.4399 12.0814 12.4399 12.4432C12.4399 12.805 12.7332 13.0982 13.095 13.0982Z" fill="white"/>
<path d="M15.4283 13.0982C15.7901 13.0982 16.0834 12.805 16.0834 12.4432C16.0834 12.0814 15.7901 11.7881 15.4283 11.7881C15.0665 11.7881 14.7732 12.0814 14.7732 12.4432C14.7732 12.805 15.0665 13.0982 15.4283 13.0982Z" fill="white"/>
<path d="M33.1223 32.4854H30V29.363C30 25.9087 32.8003 23.1084 36.2546 23.1084C37.9791 23.1084 39.377 24.5063 39.377 26.2307C39.377 29.6851 36.5767 32.4854 33.1223 32.4854Z" fill="white"/>
<path d="M32.8745 20.7245H30V17.85C30 14.6698 32.5781 12.0918 35.7582 12.0918C37.3458 12.0918 38.6327 13.3787 38.6327 14.9663C38.6328 18.1465 36.0547 20.7245 32.8745 20.7245Z" fill="white"/>
<path d="M31.905 9.9634H30V8.0584C30 5.95078 31.7086 4.24219 33.8162 4.24219C34.8683 4.24219 35.7212 5.09508 35.7212 6.14719C35.7212 8.2548 34.0126 9.9634 31.905 9.9634Z" fill="white"/>
<path d="M26.8777 32.4854H30V29.363C30 25.9087 27.1997 23.1084 23.7454 23.1084C22.021 23.1084 20.623 24.5063 20.623 26.2307C20.623 29.6851 23.4234 32.4854 26.8777 32.4854Z" fill="white"/>
<path d="M27.1257 20.7245H30.0002V17.85C30.0002 14.6698 27.422 12.0918 24.2419 12.0918C22.6544 12.0918 21.3674 13.3787 21.3674 14.9663C21.3673 18.1465 23.9454 20.7245 27.1257 20.7245Z" fill="white"/>
<path d="M28.095 9.9634H30V8.0584C30 5.95078 28.2914 4.24219 26.1838 4.24219C25.1317 4.24219 24.2788 5.09508 24.2788 6.14719C24.2788 8.2548 25.9873 9.9634 28.095 9.9634Z" fill="white"/>
<path d="M41.5988 32.6791L44.464 29.6451C44.6961 29.4002 45.0851 29.4002 45.316 29.6451L48.1824 32.6791C48.5363 33.0529 48.2703 33.667 47.757 33.667H46.3355V38.1506C46.3355 38.474 46.073 38.7365 45.7496 38.7365H44.0316C43.707 38.7365 43.4457 38.474 43.4457 38.1506V33.667H42.0242C41.5097 33.667 41.2449 33.0529 41.5988 32.6791Z" fill="#FF7530"/>
<path d="M11.818 32.6791L14.6833 29.6451C14.9153 29.4002 15.3044 29.4002 15.5352 29.6451L18.4016 32.6791C18.7555 33.0529 18.4895 33.667 17.9762 33.667H16.5548V38.1506C16.5548 38.474 16.2923 38.7365 15.9688 38.7365H14.2509C13.9262 38.7365 13.6649 38.474 13.6649 38.1506V33.667H12.2434C11.729 33.667 11.4641 33.0529 11.818 32.6791Z" fill="#FF7530"/>
<path d="M2.99108 23.8052C2.55292 23.8052 2.11464 23.6385 1.78112 23.3048C1.11397 22.6376 1.11397 21.5519 1.78112 20.8847C2.44827 20.2174 3.5339 20.2175 4.20105 20.8847C4.86819 21.5518 4.86819 22.6376 4.20116 23.3047H4.20105C3.86753 23.6384 3.42937 23.8052 2.99108 23.8052ZM3.78679 22.8905H3.78796H3.78679ZM2.99108 21.5556C2.85292 21.5556 2.71487 21.6082 2.60964 21.7133C2.3994 21.9235 2.3994 22.2659 2.60976 22.4762C2.81987 22.6864 3.16218 22.6864 3.37253 22.4762C3.58276 22.266 3.58276 21.9237 3.37253 21.7134C3.26741 21.6082 3.12925 21.5556 2.99108 21.5556Z" fill="#FF7530"/>
<path d="M56.4989 37.9127C56.0418 37.9127 55.6121 37.7347 55.2888 37.4115C54.6215 36.7442 54.6215 35.6586 55.2888 34.9914C55.6121 34.6682 56.0418 34.4902 56.4989 34.4902C56.9559 34.4902 57.3856 34.6682 57.7089 34.9916C58.3761 35.6587 58.3761 36.7443 57.7088 37.4116H57.7089C57.7088 37.4116 57.7088 37.4116 57.7088 37.4116C57.3856 37.7347 56.9559 37.9127 56.4989 37.9127ZM56.4989 35.662C56.3548 35.662 56.2192 35.7181 56.1173 35.8201C55.9071 36.0303 55.9071 36.3725 56.1173 36.5829C56.2192 36.6848 56.3547 36.7409 56.4989 36.7409C56.643 36.7409 56.7783 36.6848 56.8802 36.583H56.8803C57.0905 36.3727 57.0905 36.0306 56.8803 35.8202C56.7783 35.7181 56.643 35.662 56.4989 35.662Z" fill="#FF7530"/>
<path d="M22.8093 46.9326H22.4285V46.5518C22.4285 46.2282 22.1662 45.9658 21.8425 45.9658C21.5189 45.9658 21.2566 46.2282 21.2566 46.5518V46.9326H20.8757C20.5521 46.9326 20.2898 47.195 20.2898 47.5186C20.2898 47.8421 20.5521 48.1045 20.8757 48.1045H21.2566V48.4854C21.2566 48.8089 21.5189 49.0713 21.8425 49.0713C22.1662 49.0713 22.4285 48.8089 22.4285 48.4854V48.1045H22.8093C23.133 48.1045 23.3953 47.8421 23.3953 47.5186C23.3953 47.195 23.1329 46.9326 22.8093 46.9326Z" fill="#FF7530"/>
<path d="M27.9309 48.25H27.55V47.8691C27.55 47.5456 27.2878 47.2832 26.9641 47.2832C26.6404 47.2832 26.3782 47.5456 26.3782 47.8691V48.25H25.9973C25.6736 48.25 25.4114 48.5124 25.4114 48.8359C25.4114 49.1595 25.6736 49.4219 25.9973 49.4219H26.3782V49.8027C26.3782 50.1263 26.6404 50.3887 26.9641 50.3887C27.2878 50.3887 27.55 50.1263 27.55 49.8027V49.4219H27.9309C28.2546 49.4219 28.5168 49.1595 28.5168 48.8359C28.5168 48.5124 28.2545 48.25 27.9309 48.25Z" fill="#FF7530"/>
<path d="M14.3809 5.02832H14V4.64746C14 4.32391 13.7377 4.06152 13.4141 4.06152C13.0904 4.06152 12.8281 4.32391 12.8281 4.64746V5.02832H12.4473C12.1236 5.02832 11.8613 5.2907 11.8613 5.61426C11.8613 5.93781 12.1236 6.2002 12.4473 6.2002H12.8281V6.58106C12.8281 6.90461 13.0904 7.16699 13.4141 7.16699C13.7377 7.16699 14 6.90461 14 6.58106V6.2002H14.3809C14.7045 6.2002 14.9668 5.93781 14.9668 5.61426C14.9668 5.2907 14.7045 5.02832 14.3809 5.02832Z" fill="#FF7530"/>
<path d="M50.838 8.55305H35.5887C36.0422 7.86094 36.3071 7.03465 36.3071 6.14719C36.3071 4.77363 35.1897 3.65625 33.8161 3.65625C32.1858 3.65625 30.7607 4.54781 29.9999 5.86828C29.2391 4.54781 27.814 3.65625 26.1837 3.65625C24.8101 3.65625 23.6928 4.77375 23.6928 6.14719C23.6928 7.03465 23.9576 7.86105 24.4111 8.55305H9.16187C7.48175 8.55305 6.11499 9.91992 6.11499 11.5999V21.4237C6.11499 21.7473 6.37726 22.0097 6.70093 22.0097C7.0246 22.0097 7.28687 21.7473 7.28687 21.4237V16.078H20.8807C21.4082 19.0477 24.0066 21.3104 27.1254 21.3104H29.414V25.5381C28.1832 23.7198 26.1014 22.5224 23.7453 22.5224C21.7006 22.5224 20.037 24.1859 20.037 26.2307C20.037 30.0026 23.1058 33.0712 26.8776 33.0712H29.414V36.9995C26.2032 37.2805 23.6385 39.8453 23.3576 43.0561H9.16187C8.12804 43.0561 7.28687 42.2149 7.28687 41.1811V24.7167C7.28687 24.3932 7.0246 24.1308 6.70093 24.1308C6.37726 24.1308 6.11499 24.3932 6.11499 24.7167V41.1812C6.11499 42.8612 7.48175 44.2281 9.16187 44.2281H50.8381C52.5182 44.2281 53.885 42.8612 53.885 41.1812V11.5999C53.8848 9.91992 52.5181 8.55305 50.838 8.55305ZM33.8161 4.82801C34.5434 4.82801 35.1352 5.4198 35.1352 6.14707C35.1352 7.9282 33.686 9.37734 31.9049 9.37734H30.5858V8.05828C30.5858 6.27715 32.035 4.82801 33.8161 4.82801ZM30.5858 17.85C30.5858 14.998 32.9062 12.6776 35.7583 12.6776C37.0203 12.6776 38.0468 13.7043 38.0468 14.9661C38.0468 17.8181 35.7265 20.1386 32.8744 20.1386H30.5858V17.85ZM26.1837 4.82801C27.9648 4.82801 29.414 6.27715 29.414 8.05828V9.37734H28.0949C26.3138 9.37734 24.8646 7.9282 24.8646 6.14707C24.8646 5.4198 25.4564 4.82801 26.1837 4.82801ZM20.7826 14.9061H7.28687V11.5999C7.28687 10.5661 8.12804 9.72492 9.16187 9.72492H25.5348C26.2568 10.243 27.1405 10.5493 28.0949 10.5493H29.414V14.1832C28.2632 12.5646 26.3744 11.5057 24.2416 11.5057C22.3537 11.5057 20.8149 13.0257 20.7826 14.9061ZM21.953 14.9662C21.953 13.7043 22.9797 12.6777 24.2416 12.6777C27.0937 12.6777 29.414 14.998 29.414 17.8501V20.1387H27.1254C24.2733 20.1386 21.953 17.8182 21.953 14.9662ZM30.5858 29.363C30.5858 26.2372 33.1288 23.6943 36.2546 23.6943C37.6532 23.6943 38.791 24.832 38.791 26.2307C38.791 29.3564 36.248 31.8994 33.1223 31.8994H30.5858V29.363ZM21.2089 26.2307C21.2089 24.8321 22.3466 23.6943 23.7453 23.6943C26.871 23.6943 29.414 26.2372 29.414 29.363V31.8994H26.8776C23.7519 31.8994 21.2089 29.3564 21.2089 26.2307ZM29.9999 38.1441C32.8335 38.1441 35.1727 40.299 35.466 43.0561H24.5338C24.8271 40.2991 27.1663 38.1441 29.9999 38.1441ZM50.838 43.0561H36.6422C36.3614 39.8451 33.7967 37.2804 30.5858 36.9995V33.0712H33.1223C36.8942 33.0712 39.9628 30.0026 39.9628 26.2307C39.9628 24.186 38.2994 22.5224 36.2546 22.5224C33.8984 22.5224 31.8167 23.7199 30.5858 25.5381V21.3104H32.8744C36.3727 21.3104 39.2187 18.4644 39.2187 14.9661C39.2187 13.058 37.6663 11.5057 35.7583 11.5057C33.6256 11.5057 31.7366 12.5646 30.5858 14.1832V10.5493H31.9049C32.8594 10.5493 33.7431 10.243 34.465 9.72492H50.838C51.8718 9.72492 52.713 10.5661 52.713 11.5999V14.9061H41.867C41.5434 14.9061 41.2811 15.1685 41.2811 15.4921C41.2811 15.8156 41.5434 16.078 41.867 16.078H52.713V41.1811C52.713 42.215 51.8719 43.0561 50.838 43.0561Z" fill="#43419E"/>
<path d="M45.7423 29.242C45.5219 29.0087 45.2114 28.875 44.8905 28.875C44.5695 28.875 44.259 29.0088 44.0385 29.2421L41.1722 32.2762C40.8507 32.6167 40.7625 33.1146 40.9479 33.5448C41.1333 33.9749 41.5558 34.2529 42.0242 34.2529H42.8592V38.1502C42.8592 38.7963 43.3849 39.322 44.0311 39.322H45.7498C46.396 39.322 46.9217 38.7963 46.9217 38.1502V34.2529H47.7567C48.2251 34.2529 48.6476 33.9749 48.833 33.5448C49.0184 33.1146 48.9303 32.6167 48.6087 32.2761L45.7423 29.242ZM46.3357 33.0809C46.0121 33.0809 45.7498 33.3432 45.7498 33.6668V38.15H44.0311V33.6668C44.0311 33.3432 43.7689 33.0809 43.4452 33.0809H42.0242L44.8905 30.0468L47.7567 33.0809H46.3357Z" fill="#43419E"/>
<path d="M14.2503 39.3219H15.9691C16.6152 39.3219 17.1409 38.7962 17.1409 38.15V34.2527H17.976C18.4443 34.2527 18.8669 33.9748 19.0521 33.5447C19.2375 33.1146 19.1495 32.6167 18.828 32.2761L15.9616 29.242C15.7411 29.0087 15.4306 28.875 15.1095 28.875C14.7886 28.875 14.4781 29.0089 14.2578 29.2421L11.3915 32.2761C11.0699 32.6166 10.9818 33.1145 11.1671 33.5447C11.3525 33.9749 11.775 34.2529 12.2434 34.2529H13.0784V38.1502C13.0784 38.7962 13.6041 39.3219 14.2503 39.3219ZM12.2434 33.0809L15.1097 30.0468L17.976 33.0809H16.555C16.2313 33.0809 15.9691 33.3432 15.9691 33.6668V38.15H14.2503V33.6668C14.2503 33.3432 13.988 33.0809 13.6643 33.0809H12.2434Z" fill="#43419E"/>
<defs>
<linearGradient id="paint0_linear" x1="32.5925" y1="53.6529" x2="27.4363" y2="8.41848" gradientUnits="userSpaceOnUse">
<stop stop-color="#FFECE2" stop-opacity="0"/>
<stop offset="1" stop-color="#FFCCB2"/>
</linearGradient>
</defs>
</svg>
