<svg width="42" height="47" viewBox="0 0 42 47" fill="none" xmlns="http://www.w3.org/2000/svg">
<path d="M38.5508 17.8138L23.9486 9.35457L9.44706 0.996068C8.03719 0.190429 6.42591 -0.0109797 5.01604 0.39184C3.60617 0.794659 2.29701 1.701 1.49137 3.11087C1.18925 3.51369 1.08855 4.01721 0.887141 4.52074C0.786436 4.82285 0.786435 5.22568 0.68573 5.6285C0.68573 5.7292 0.68573 5.93061 0.68573 6.03131V23.1511V40.271C0.68573 41.8823 1.39067 43.3928 2.39771 44.3999C3.50547 45.5076 4.91534 46.1119 6.52662 46.1119C7.43296 46.1119 9.34635 45.3062 9.84988 45.0041L24.15 36.7463H24.2507L24.3514 36.6456L39.155 28.0857C40.5649 27.28 41.4712 25.9709 41.874 24.4603C41.9747 24.1582 41.9747 23.7554 41.9747 23.3526C41.9747 20.0293 38.5508 17.8138 38.5508 17.8138ZM36.5367 23.7554L21.9345 32.2146C21.8338 32.2146 21.7331 32.3153 21.7331 32.3153L7.43296 40.5731C7.33226 40.6738 6.82873 40.8752 6.62732 40.8752C6.42591 40.8752 6.2245 40.7745 6.02309 40.6738C5.92239 40.5731 5.82168 40.271 5.82168 40.0696V23.0504V6.03131V5.93061C5.82168 5.8299 5.82168 5.8299 5.82168 5.7292C5.82168 5.7292 5.82168 5.6285 5.92239 5.6285C5.92239 5.6285 6.02309 5.52779 6.02309 5.42708C6.1238 5.32638 6.32521 5.22567 6.42591 5.12497C6.62732 5.12497 6.82873 5.12497 6.92944 5.12497C7.03014 5.22567 7.13085 5.22567 7.23155 5.32638L21.5317 13.5842C21.6324 13.6849 21.7331 13.6849 21.7331 13.6849H21.8338L36.436 22.1441C36.6374 22.2448 37.0402 22.5469 37.0402 22.849C37.0402 23.2519 36.7381 23.6547 36.5367 23.7554Z" fill="white"/>
</svg>