<svg width="80" height="80" viewBox="0 0 80 80" fill="none" xmlns="http://www.w3.org/2000/svg">
<g clip-path="url(#clip0)">
<path d="M76.8225 20.3646C80.5673 26.5205 80.962 37.1791 78.2189 43.8421C75.8162 49.6782 71.0367 55.1562 64.7626 55.8423C62.4554 56.0946 60.0973 55.6823 57.8139 56.0982C49.9611 57.5282 47.0401 67.206 40.9373 72.3504C36.69 75.9305 30.797 77.1974 25.2851 76.5077C19.7733 75.818 14.6129 73.326 10.0701 70.129C6.48311 67.6044 3.12701 64.5005 1.35701 60.4873C-2.35299 52.0749 2.0117 41.9715 8.79248 35.7624C10.9044 33.8285 13.2583 32.1227 15.0229 29.8676C16.7875 27.6123 17.9104 24.6027 17.0697 21.8654C16.3989 19.6815 14.5933 17.9885 13.9092 15.8087C12.9783 12.8424 14.3834 9.51477 16.6908 7.43118C18.9981 5.34758 22.0514 4.30008 25.0761 3.58118C37.7484 0.568521 65.5172 1.7804 76.8225 20.3646V20.3646Z" fill="url(#paint0_linear)"/>
<path opacity="0.1" d="M54.7238 77.6813H25.2763C22.6876 77.6813 20.5888 75.5825 20.5888 72.9938V13.5128C20.5888 10.9241 22.6876 8.82532 25.2763 8.82532H54.7238C57.3126 8.82532 59.4113 10.9241 59.4113 13.5128V72.9938C59.4113 75.5825 57.3127 77.6813 54.7238 77.6813Z" fill="#43419E"/>
<path d="M54.7238 73.9313H25.2763C22.6876 73.9313 20.5888 71.8325 20.5888 69.2438V9.76282C20.5888 7.17391 22.6876 5.07532 25.2763 5.07532H54.7238C57.3126 5.07532 59.4113 7.17391 59.4113 9.76282V69.2438C59.4113 71.8325 57.3127 73.9313 54.7238 73.9313Z" fill="#FF7530"/>
<path d="M20.5892 11.7799H59.411V67.2268H20.5892V11.7799Z" fill="white"/>
<path d="M54.7238 74.7125H25.2763C22.2608 74.7125 19.8076 72.2592 19.8076 69.2438V9.76282C19.8076 6.74735 22.2608 4.29407 25.2763 4.29407H54.724C57.7394 4.29407 60.1927 6.74735 60.1927 9.76282V69.2438C60.1926 72.2592 57.7393 74.7125 54.7238 74.7125V74.7125ZM25.2763 5.85657C23.1224 5.85657 21.3701 7.60891 21.3701 9.76282V69.2438C21.3701 71.3977 23.1224 73.15 25.2763 73.15H54.724C56.8779 73.15 58.6302 71.3977 58.6302 69.2438V9.76282C58.6302 7.60891 56.8779 5.85657 54.724 5.85657H25.2763Z" fill="#43419E"/>
<path d="M42.7317 9.35178H37.2683C36.8369 9.35178 36.4871 9.00193 36.4871 8.57053C36.4871 8.13912 36.8369 7.78928 37.2683 7.78928H42.7317C43.1632 7.78928 43.513 8.13912 43.513 8.57053C43.513 9.00193 43.1632 9.35178 42.7317 9.35178Z" fill="#43419E"/>
<path d="M47.1587 8.57035C47.1587 9.00191 46.8088 9.35191 46.3771 9.35191C45.9455 9.35191 45.5956 9.00207 45.5956 8.57035C45.5956 8.13879 45.9454 7.78879 46.3771 7.78879C46.8088 7.78894 47.1587 8.13879 47.1587 8.57035Z" fill="#43419E"/>
<path d="M54.9141 17.0704V30.336C54.9141 31.1985 54.2141 31.8985 53.3516 31.8985H26.6485C25.786 31.8985 25.086 31.1985 25.086 30.336V17.0704C25.086 16.2079 25.786 15.5079 26.6485 15.5079H53.3516C54.2141 15.5079 54.9141 16.2079 54.9141 17.0704V17.0704Z" fill="white"/>
<path d="M54.9142 20.0454V30.336C54.9142 31.1985 54.2142 31.8985 53.3517 31.8985H34.3079C34.2501 31.4079 34.2204 30.9079 34.2204 30.4017C34.2204 23.2564 40.0126 17.4642 47.1595 17.4642C50.0673 17.4642 52.7532 18.4251 54.9142 20.0454V20.0454Z" fill="#FF7530"/>
<path d="M54.9141 61.0252V67.2267H25.086V61.0252C25.086 60.1627 25.786 59.4627 26.6485 59.4627H53.3516C54.2141 59.4627 54.9141 60.1627 54.9141 61.0252Z" fill="white"/>
<path d="M37.3532 63.3455C37.3532 64.7424 37.0188 66.0611 36.4267 67.2267H25.086V61.0252C25.086 60.1627 25.786 59.4627 26.6485 59.4627H36.4267C37.0188 60.6299 37.3532 61.9486 37.3532 63.3455Z" fill="#FF7530"/>
<path d="M38.171 43.3645H25.8675C25.4361 43.3645 25.0863 43.0148 25.0863 42.5833V36.3741C25.0863 35.9427 25.4361 35.5928 25.8675 35.5928H38.171C38.6024 35.5928 38.9522 35.9427 38.9522 36.3741V42.5833C38.9522 43.0148 38.6024 43.3645 38.171 43.3645V43.3645Z" fill="#FF7530"/>
<path d="M54.1326 43.3645H41.8292C41.3978 43.3645 41.0479 43.0148 41.0479 42.5833V36.3741C41.0479 35.9427 41.3978 35.5928 41.8292 35.5928H54.1326C54.564 35.5928 54.9139 35.9427 54.9139 36.3741V42.5833C54.9139 43.0148 54.564 43.3645 54.1326 43.3645Z" fill="#FF7530"/>
<path d="M38.171 52.956H25.8675C25.4361 52.956 25.0863 52.6061 25.0863 52.1747V45.9655C25.0863 45.5341 25.4361 45.1842 25.8675 45.1842H38.171C38.6024 45.1842 38.9522 45.5341 38.9522 45.9655V52.1747C38.9522 52.6063 38.6024 52.956 38.171 52.956V52.956Z" fill="#FF7530"/>
<path d="M54.1326 52.956H41.8292C41.3978 52.956 41.0479 52.6061 41.0479 52.1747V45.9655C41.0479 45.5341 41.3978 45.1842 41.8292 45.1842H54.1326C54.564 45.1842 54.9139 45.5341 54.9139 45.9655V52.1747C54.9139 52.6063 54.564 52.956 54.1326 52.956Z" fill="#FF7530"/>
<path d="M39.3232 24.6843H29.0605C28.6291 24.6843 28.2793 25.0342 28.2793 25.4656C28.2793 25.897 28.6291 26.2468 29.0605 26.2468H39.3232C39.7546 26.2468 40.1044 25.897 40.1044 25.4656C40.1044 25.0342 39.7547 24.6843 39.3232 24.6843Z" fill="#43419E"/>
<path d="M39.3232 21.6487H29.0605C28.6291 21.6487 28.2793 21.9985 28.2793 22.4299C28.2793 22.8613 28.6291 23.2112 29.0605 23.2112H39.3232C39.7546 23.2112 40.1044 22.8613 40.1044 22.4299C40.1044 21.9985 39.7547 21.6487 39.3232 21.6487Z" fill="#43419E"/>
<path d="M30.8857 18.001H29.0605C28.6291 18.001 28.2793 18.3509 28.2793 18.7823C28.2793 19.2137 28.6291 19.5635 29.0605 19.5635H30.8857C31.3171 19.5635 31.6669 19.2137 31.6669 18.7823C31.6669 18.3509 31.3172 18.001 30.8857 18.001Z" fill="#43419E"/>
<path d="M32.3801 56.2698H25.8674C25.436 56.2698 25.0862 56.6197 25.0862 57.0511C25.0862 57.4825 25.436 57.8323 25.8674 57.8323H32.3801C32.8115 57.8323 33.1613 57.4825 33.1613 57.0511C33.1613 56.6197 32.8115 56.2698 32.3801 56.2698V56.2698Z" fill="#43419E"/>
<path d="M54.9142 61.0252V64.8674C51.9533 64.8674 49.5517 62.4674 49.5517 59.5064V59.4627H53.3517C54.2142 59.4627 54.9142 60.1627 54.9142 61.0252Z" fill="#FF7530"/>
<path d="M65.8915 26.1592C64.6602 26.1592 63.6585 25.1574 63.6585 23.926C63.6585 22.6948 64.6602 21.6931 65.8915 21.6931C67.1229 21.6931 68.1246 22.6948 68.1246 23.926C68.1246 25.1573 67.1229 26.1592 65.8915 26.1592ZM65.8915 23.2556C65.5218 23.2556 65.221 23.5564 65.221 23.926C65.221 24.2957 65.5218 24.5967 65.8915 24.5967C66.2612 24.5967 66.5621 24.2959 66.5621 23.926C66.5621 23.5564 66.2612 23.2556 65.8915 23.2556Z" fill="#FF7530"/>
<path d="M67.3433 32.8423C66.1119 32.8423 65.1102 31.8406 65.1102 30.6092C65.1102 29.3779 66.1119 28.3761 67.3433 28.3761C68.5746 28.3761 69.5763 29.3778 69.5763 30.6092C69.5763 31.8406 68.5746 32.8423 67.3433 32.8423ZM67.3433 29.9387C66.9736 29.9387 66.6727 30.2395 66.6727 30.6093C66.6727 30.9792 66.9736 31.28 67.3433 31.28C67.713 31.28 68.0138 30.9792 68.0138 30.6093C68.0138 30.2395 67.713 29.9387 67.3433 29.9387Z" fill="#FF7530"/>
<path d="M12.9699 19.2637C12.5383 19.2637 12.1886 18.9138 12.1886 18.4824C12.1886 17.9654 11.7682 17.5449 11.2511 17.5449C10.8196 17.5449 10.4699 17.1951 10.4699 16.7637C10.4699 16.3323 10.8196 15.9824 11.2511 15.9824C11.7682 15.9824 12.1886 15.562 12.1886 15.0449C12.1886 14.6135 12.5383 14.2637 12.9699 14.2637C13.4014 14.2637 13.7511 14.6135 13.7511 15.0449C13.7511 15.562 14.1716 15.9824 14.6886 15.9824C15.1202 15.9824 15.4699 16.3323 15.4699 16.7637C15.4699 17.1951 15.1202 17.5449 14.6886 17.5449C14.1716 17.5449 13.7511 17.9654 13.7511 18.4824C13.7511 18.9138 13.4014 19.2637 12.9699 19.2637Z" fill="#FF7530"/>
<path d="M13.7121 65.2375C13.2805 65.2375 12.9308 64.8877 12.9308 64.4563C12.9308 63.9393 12.5103 63.5188 11.9933 63.5188C11.5618 63.5188 11.2121 63.169 11.2121 62.7375C11.2121 62.3061 11.5618 61.9563 11.9933 61.9563C12.5103 61.9563 12.9308 61.5358 12.9308 61.0188C12.9308 60.5874 13.2805 60.2375 13.7121 60.2375C14.1436 60.2375 14.4933 60.5874 14.4933 61.0188C14.4933 61.5358 14.9138 61.9563 15.4308 61.9563C15.8624 61.9563 16.2121 62.3061 16.2121 62.7375C16.2121 63.169 15.8624 63.5188 15.4308 63.5188C14.9138 63.5188 14.4933 63.9393 14.4933 64.4563C14.4933 64.8877 14.1436 65.2375 13.7121 65.2375Z" fill="#FF7530"/>
<path d="M11.2511 57.7445C10.8196 57.7445 10.4699 57.3946 10.4699 56.9632C10.4699 56.4462 10.0494 56.0257 9.53238 56.0257C9.10082 56.0257 8.75113 55.6759 8.75113 55.2445C8.75113 54.8131 9.10082 54.4632 9.53238 54.4632C10.0494 54.4632 10.4699 54.0426 10.4699 53.5256C10.4699 53.0942 10.8196 52.7443 11.2511 52.7443C11.6827 52.7443 12.0324 53.0942 12.0324 53.5256C12.0324 54.0426 12.4529 54.4632 12.9699 54.4632C13.4014 54.4632 13.7511 54.8131 13.7511 55.2445C13.7511 55.6759 13.4014 56.0257 12.9699 56.0257C12.4529 56.0257 12.0324 56.4462 12.0324 56.9632C12.0324 57.3946 11.6827 57.7445 11.2511 57.7445Z" fill="#FF7530"/>
<path d="M53.3515 32.68H26.6484C25.356 32.68 24.3046 31.6286 24.3046 30.3363V17.0707C24.3046 15.7783 25.356 14.7269 26.6484 14.7269H53.3515C54.644 14.7269 55.6952 15.7783 55.6952 17.0707V30.3363C55.6952 31.6286 54.644 32.68 53.3515 32.68ZM26.6484 16.2894C26.2176 16.2894 25.8671 16.6399 25.8671 17.0707V30.3363C25.8671 30.7671 26.2176 31.1175 26.6484 31.1175H53.3515C53.7823 31.1175 54.1327 30.7671 54.1327 30.3363V17.0707C54.1327 16.6399 53.7823 16.2894 53.3515 16.2894H26.6484Z" fill="#43419E"/>
<path d="M55.6952 68.0079H24.3046V61.0253C24.3046 59.7329 25.356 58.6815 26.6484 58.6815H53.3515C54.644 58.6815 55.6952 59.7329 55.6952 61.0253V68.0079ZM25.8671 66.4454H54.1327V61.0253C54.1327 60.5945 53.7823 60.244 53.3515 60.244H26.6484C26.2176 60.244 25.8671 60.5945 25.8671 61.0253V66.4454Z" fill="#43419E"/>
</g>
<defs>
<linearGradient id="paint0_linear" x1="80.0001" y1="39.5034" x2="0.000138708" y2="39.5034" gradientUnits="userSpaceOnUse">
<stop stop-color="#FFECE2" stop-opacity="0"/>
<stop offset="1" stop-color="#FFCCB2"/>
</linearGradient>
<clipPath id="clip0">
<rect width="80" height="80" fill="white"/>
</clipPath>
</defs>
</svg>
