<svg width="72" height="80" viewBox="0 0 72 80" fill="none" xmlns="http://www.w3.org/2000/svg">
<path d="M59.7217 5.97367C80.8666 24.6515 53.6544 42.7563 56.2462 63.1655C57.3986 72.2393 53.7378 80.9137 41.7611 79.9224C27.1653 78.7143 32.4636 64.7335 29.407 55.4259C24.1477 39.4101 -8.20703 43.1509 5.20468 18.4809C13.7637 2.73741 45.1681 -6.8818 59.7217 5.97367V5.97367Z" fill="url(#paint0_linear)"/>
<path opacity="0.1" d="M69.5169 22.4891C68.3575 21.3297 66.4778 21.3297 65.3184 22.4891L57.4684 30.3391H46.9319V20.8594C46.9319 19.9969 46.2319 19.2969 45.3694 19.2969H11.1506C10.2881 19.2969 9.58814 19.9969 9.58814 20.8594V64.2969C9.58814 67.7485 12.3866 70.5469 15.8381 70.5469H53.9631C57.4147 70.5469 60.2131 67.7485 60.2131 64.2969V35.9913L69.517 26.6875C70.6763 25.5282 70.6763 23.6483 69.5169 22.4891Z" fill="#43419E"/>
<path d="M60.2129 27.6828V60.0781C60.2129 63.5297 57.4145 66.3281 53.9629 66.3281H24.9645V26.1203H58.6504C59.4364 26.1203 60.0879 26.7015 60.1957 27.4578C60.2082 27.5312 60.2129 27.6062 60.2129 27.6828V27.6828Z" fill="white"/>
<path d="M53.1817 66.3282H15.838C12.3864 66.3282 9.58796 63.5297 9.58796 60.0782V16.6407C9.58796 15.7782 10.288 15.0782 11.1505 15.0782H45.3692C46.2317 15.0782 46.9317 15.7782 46.9317 16.6407V60.0782C46.9317 63.5297 49.7301 66.3282 53.1817 66.3282Z" fill="white"/>
<path d="M46.9317 28.3853V16.6407C46.9317 15.7782 46.2317 15.0782 45.3692 15.0782H11.1505C10.288 15.0782 9.58796 15.7782 9.58796 16.6407V28.3853H46.9317Z" fill="#FF7530"/>
<path d="M40.9625 51.2424H15.2723C14.8408 51.2424 14.4911 50.8926 14.4911 50.4612C14.4911 50.0298 14.8408 49.6799 15.2723 49.6799H40.9625C41.3941 49.6799 41.7438 50.0298 41.7438 50.4612C41.7438 50.8928 41.3941 51.2424 40.9625 51.2424Z" fill="#43419E"/>
<path d="M30.438 58.5506H15.2725C14.841 58.5506 14.4913 58.2008 14.4913 57.7694C14.4913 57.338 14.841 56.9881 15.2725 56.9881H30.438C30.8696 56.9881 31.2192 57.338 31.2192 57.7694C31.2192 58.2008 30.8694 58.5506 30.438 58.5506Z" fill="#43419E"/>
<path d="M40.9625 41.8674H15.2723C14.8408 41.8674 14.4911 41.5176 14.4911 41.0862C14.4911 40.6548 14.8408 40.3049 15.2723 40.3049H40.9625C41.3941 40.3049 41.7438 40.6548 41.7438 41.0862C41.7438 41.5178 41.3941 41.8674 40.9625 41.8674Z" fill="#43419E"/>
<path d="M40.9625 44.9924H15.2723C14.8408 44.9924 14.4911 44.6426 14.4911 44.2112C14.4911 43.7798 14.8408 43.4299 15.2723 43.4299H40.9625C41.3941 43.4299 41.7438 43.7798 41.7438 44.2112C41.7438 44.6428 41.3941 44.9924 40.9625 44.9924Z" fill="#43419E"/>
<path d="M40.9625 48.1174H15.2723C14.8408 48.1174 14.4911 47.7676 14.4911 47.3362C14.4911 46.9048 14.8408 46.5549 15.2723 46.5549H40.9625C41.3941 46.5549 41.7438 46.9048 41.7438 47.3362C41.7438 47.7678 41.3941 48.1174 40.9625 48.1174Z" fill="#43419E"/>
<path d="M22.0078 32.4924H15.2723C14.8408 32.4924 14.4911 32.1426 14.4911 31.7112C14.4911 31.2798 14.8408 30.9299 15.2723 30.9299H22.0078C22.4394 30.9299 22.7891 31.2798 22.7891 31.7112C22.7891 32.1428 22.4394 32.4924 22.0078 32.4924Z" fill="#43419E"/>
<path d="M22.0078 25.7737H15.2723C14.8408 25.7737 14.4911 25.4239 14.4911 24.9924C14.4911 24.561 14.8408 24.2112 15.2723 24.2112H22.0078C22.4394 24.2112 22.7891 24.561 22.7891 24.9924C22.7891 25.424 22.4394 25.7737 22.0078 25.7737Z" fill="#43419E"/>
<path d="M22.0078 22.9386H15.2723C14.8408 22.9386 14.4911 22.5887 14.4911 22.1573C14.4911 21.7259 14.8408 21.3761 15.2723 21.3761H22.0078C22.4394 21.3761 22.7891 21.7259 22.7891 22.1573C22.7891 22.5887 22.4394 22.9386 22.0078 22.9386Z" fill="#43419E"/>
<path d="M40.1686 22.9386H38.5894C38.1578 22.9386 37.8081 22.5887 37.8081 22.1573C37.8081 21.7259 38.1578 21.3761 38.5894 21.3761H40.1686C40.6001 21.3761 40.9498 21.7259 40.9498 22.1573C40.9498 22.5887 40.6001 22.9386 40.1686 22.9386Z" fill="#43419E"/>
<path d="M40.9625 35.6174H15.2723C14.8408 35.6174 14.4911 35.2676 14.4911 34.8362C14.4911 34.4048 14.8408 34.0549 15.2723 34.0549H40.9625C41.3941 34.0549 41.7438 34.4048 41.7438 34.8362C41.7438 35.2678 41.3941 35.6174 40.9625 35.6174Z" fill="#43419E"/>
<path d="M40.9625 38.7424H15.2723C14.8408 38.7424 14.4911 38.3926 14.4911 37.9612C14.4911 37.5298 14.8408 37.1799 15.2723 37.1799H40.9625C41.3941 37.1799 41.7438 37.5298 41.7438 37.9612C41.7438 38.3928 41.3941 38.7424 40.9625 38.7424Z" fill="#43419E"/>
<path d="M3.33424 48.2601C3.13424 48.2601 2.93439 48.1838 2.78174 48.0312L1.06299 46.3124C0.757829 46.0074 0.757829 45.5127 1.06299 45.2077L2.78174 43.489C3.08689 43.1838 3.58142 43.1838 3.88658 43.489L5.60533 45.2077C5.91049 45.5127 5.91049 46.0074 5.60533 46.3124L3.88658 48.0312C3.73408 48.1838 3.53424 48.2601 3.33424 48.2601V48.2601ZM2.72033 45.7601L3.33424 46.374L3.94814 45.7601L3.33424 45.1462L2.72033 45.7601Z" fill="#FF7530"/>
<path d="M5.05301 68.8281C4.6216 68.8281 4.27175 68.4784 4.27175 68.0469C4.27175 67.5299 3.85129 67.1094 3.33425 67.1094C2.90285 67.1094 2.553 66.7597 2.553 66.3281C2.553 65.8966 2.90285 65.5469 3.33425 65.5469C3.85129 65.5469 4.27175 65.1264 4.27175 64.6094C4.27175 64.1778 4.6216 63.8281 5.05301 63.8281C5.48441 63.8281 5.83426 64.1778 5.83426 64.6094C5.83426 65.1264 6.25473 65.5469 6.77176 65.5469C7.20316 65.5469 7.55301 65.8966 7.55301 66.3281C7.55301 66.7597 7.20316 67.1094 6.77176 67.1094C6.25473 67.1094 5.83426 67.5299 5.83426 68.0469C5.83426 68.4784 5.48441 68.8281 5.05301 68.8281V68.8281Z" fill="#FF7530"/>
<path d="M55.5254 19.9006C55.094 19.9006 54.7442 19.5509 54.7442 19.1194C54.7442 18.6023 54.3237 18.1819 53.8067 18.1819C53.3753 18.1819 53.0254 17.8322 53.0254 17.4006C53.0254 16.9691 53.3753 16.6194 53.8067 16.6194C54.3237 16.6194 54.7442 16.1989 54.7442 15.6819C54.7442 15.2503 55.094 14.9006 55.5254 14.9006C55.9569 14.9006 56.3067 15.2503 56.3067 15.6819C56.3067 16.1989 56.7272 16.6194 57.2442 16.6194C57.6756 16.6194 58.0254 16.9691 58.0254 17.4006C58.0254 17.8322 57.6756 18.1819 57.2442 18.1819C56.7272 18.1819 56.3067 18.6023 56.3067 19.1194C56.3067 19.5509 55.9569 19.9006 55.5254 19.9006Z" fill="#FF7530"/>
<path d="M49.9219 13.1098C49.4905 13.1098 49.1406 12.7601 49.1406 12.3285C49.1406 11.8115 48.72 11.391 48.203 11.391C47.7716 11.391 47.4217 11.0413 47.4217 10.6098C47.4217 10.1782 47.7716 9.82854 48.203 9.82854C48.72 9.82854 49.1406 9.40807 49.1406 8.89104C49.1406 8.45947 49.4905 8.10979 49.9219 8.10979C50.3533 8.10979 50.7031 8.45947 50.7031 8.89104C50.7031 9.40807 51.1236 9.82854 51.6406 9.82854C52.072 9.82854 52.4219 10.1782 52.4219 10.6098C52.4219 11.0413 52.072 11.391 51.6406 11.391C51.1237 11.391 50.7031 11.8115 50.7031 12.3285C50.7031 12.7601 50.3534 13.1098 49.9219 13.1098Z" fill="#FF7530"/>
<path d="M41.1753 27.1764C41.1753 25.7047 39.978 24.5073 38.5063 24.5073C37.0345 24.5073 35.8372 25.7047 35.8372 27.1764C35.8372 27.9023 36.1292 28.5604 36.6011 29.0422C36.1294 29.5239 35.8372 30.1822 35.8372 30.9079C35.8372 31.3515 36.1969 31.7112 36.6405 31.7112C37.0841 31.7112 37.4437 31.3515 37.4437 30.9079C37.4437 30.3222 37.9203 29.8454 38.5063 29.8454C39.092 29.8454 39.5688 30.322 39.5688 30.9079C39.5688 31.3515 39.9284 31.7112 40.372 31.7112C40.8156 31.7112 41.1753 31.3515 41.1753 30.9079C41.1753 30.1822 40.8833 29.5239 40.4114 29.0422C40.8833 28.5604 41.1753 27.9022 41.1753 27.1764V27.1764ZM38.5063 26.1139C39.092 26.1139 39.5688 26.5904 39.5688 27.1764C39.5688 27.7622 39.0922 28.2389 38.5063 28.2389C37.9205 28.2389 37.4437 27.7622 37.4437 27.1764C37.4437 26.5904 37.9205 26.1139 38.5063 26.1139Z" fill="#43419E"/>
<path d="M34.7497 56.721L30.3359 58.4649C29.7 58.7161 29.0709 58.0871 29.3222 57.4511L31.0661 53.0372C31.288 52.4758 31.6226 51.9658 32.0495 51.5389L65.3184 18.2703C66.4778 17.111 68.3575 17.111 69.5169 18.2703C70.6762 19.4297 70.6762 21.3094 69.5169 22.4688L36.248 55.7375C35.8211 56.1644 35.3111 56.4992 34.7497 56.721V56.721Z" fill="#FF7530"/>
<path d="M62.1326 21.4517L63.1821 20.4023L67.3799 24.6001L66.3304 25.6495L62.1326 21.4517Z" fill="white"/>
<path d="M56.7678 26.8156L61.159 22.4245L65.3568 26.6223L60.9657 31.0135L56.7678 26.8156Z" fill="white"/>
<path d="M55.1168 31.5653L59.8795 26.8027C60.1847 26.4975 60.6794 26.4977 60.9844 26.8027C61.2895 27.1077 61.2895 27.6023 60.9844 27.9075L56.2217 32.6702C55.9165 32.9753 55.4219 32.9752 55.1168 32.6702C54.8118 32.3652 54.8118 31.8705 55.1168 31.5653Z" fill="#43419E"/>
<path d="M66.015 44.3673C65.815 44.3673 65.6152 44.2911 65.4625 44.1384L63.7438 42.4197C63.4386 42.1147 63.4386 41.62 63.7438 41.315L65.4625 39.5962C65.7677 39.2911 66.2622 39.2911 66.5674 39.5962L68.2861 41.315C68.5913 41.62 68.5913 42.1147 68.2861 42.4197L66.5674 44.1384C66.4149 44.2911 66.215 44.3673 66.015 44.3673ZM65.4011 41.8673L66.015 42.4812L66.6289 41.8673L66.015 41.2534L65.4011 41.8673Z" fill="#FF7530"/>
<path d="M64.7659 17.7178L57.1451 25.3384H52.191C51.7596 25.3384 51.4098 25.6881 51.4098 26.1197C51.4098 26.5513 51.7596 26.9009 52.191 26.9009H55.5826L47.7128 34.7706V16.6406C47.7128 15.3481 46.6614 14.2969 45.369 14.2969H11.1503C9.85793 14.2969 8.80652 15.3481 8.80652 16.6406V60.0781C8.80652 63.9553 11.9607 67.1094 15.8378 67.1094H24.9645H53.9628C57.8398 67.1094 60.994 63.9553 60.994 60.0781V32.1614C60.994 32.1411 60.9895 32.122 60.9881 32.102L70.069 23.0211C71.531 21.5591 71.531 19.18 70.069 17.718C68.6071 16.2558 66.2281 16.2556 64.7659 17.7178V17.7178ZM59.4317 60.0781C59.4317 63.0936 56.9784 65.5469 53.9629 65.5469H53.1817C50.1662 65.5469 47.7129 63.0936 47.7129 60.0781V50.4611C47.7129 50.0295 47.3631 49.6798 46.9317 49.6798C46.5003 49.6798 46.1504 50.0295 46.1504 50.4611V60.0781C46.1504 62.2845 47.172 64.2567 48.767 65.5469H24.9646H15.8379C12.8225 65.5469 10.3692 63.0936 10.3692 60.0781V16.6406C10.3692 16.2098 10.7196 15.8594 11.1504 15.8594H45.3692C45.8 15.8594 46.1504 16.2098 46.1504 16.6406V36.3333L31.4971 50.9866C30.9917 51.4919 30.6021 52.0853 30.3395 52.7503L28.5956 57.1642C28.3631 57.7525 28.4965 58.3958 28.9439 58.843C29.2457 59.145 29.637 59.3039 30.0403 59.3039C30.2346 59.3039 30.4317 59.267 30.6231 59.1914L35.037 57.4475C35.7017 57.1847 36.2951 56.7953 36.8007 56.2898L59.432 33.6584V60.0781H59.4317ZM68.9643 21.9164L35.6956 55.1852C35.3421 55.5386 34.9273 55.8109 34.4625 55.9945L30.0486 57.7384L31.7926 53.3245C31.9762 52.8597 32.2484 52.445 32.6018 52.0916L65.8707 18.8227C66.2971 18.3962 66.8573 18.183 67.4176 18.183C67.9778 18.183 68.5379 18.3962 68.9643 18.8227C69.8171 19.6756 69.8171 21.0634 68.9643 21.9164V21.9164Z" fill="#43419E"/>
<defs>
<linearGradient id="paint0_linear" x1="67.8267" y1="39.9999" x2="1.97484" y2="39.9999" gradientUnits="userSpaceOnUse">
<stop stop-color="#FFECE2" stop-opacity="0"/>
<stop offset="1" stop-color="#FFCCB2"/>
</linearGradient>
</defs>
</svg>
