<svg width="70" height="80" viewBox="0 0 70 80" fill="none" xmlns="http://www.w3.org/2000/svg">
<path d="M26.5509 13.9614C29.8994 5.73184 37.9995 -0.0578452 47.4456 0.000436049C59.4963 0.0746548 69.4044 9.79481 69.6967 21.842C69.8409 27.7857 67.6689 33.2203 64.0195 37.3081C61.1103 40.5668 59.6503 44.8589 59.7975 49.225C59.817 49.8053 59.82 50.3898 59.8056 50.9781C59.4206 66.8218 45.8858 80.0095 30.0374 80C13.6103 79.9901 0.296727 66.6703 0.296727 50.2411C0.296727 38.1982 7.45048 27.8273 17.74 23.1437C21.7505 21.3182 24.8903 18.0426 26.5509 13.9614V13.9614Z" fill="url(#paint0_linear)"/>
<g opacity="0.1">
<path opacity="0.1" d="M59.2705 9.94313H10.7296C9.86566 9.94313 9.16534 10.6434 9.16534 11.5073V17.7706C9.16534 18.6345 9.86566 19.3348 10.7296 19.3348H59.2703C60.1343 19.3348 60.8346 18.6345 60.8346 17.7706V11.5073C60.8346 10.6434 60.1343 9.94313 59.2705 9.94313V9.94313Z" fill="#43419E"/>
<path opacity="0.1" d="M59.2705 25.0648H10.7296C9.86566 25.0648 9.16534 25.7651 9.16534 26.629V32.8923C9.16534 33.7562 9.86566 34.4565 10.7296 34.4565H59.2703C60.1343 34.4565 60.8346 33.7562 60.8346 32.8923V26.629C60.8346 25.7651 60.1343 25.0648 59.2705 25.0648V25.0648Z" fill="#43419E"/>
<path opacity="0.1" d="M59.2705 40.1864H10.7296C9.86566 40.1864 9.16534 40.8867 9.16534 41.7506V48.0139C9.16534 48.8778 9.86566 49.5781 10.7296 49.5781H59.2703C60.1343 49.5781 60.8346 48.8778 60.8346 48.0139V41.7506C60.8346 40.8867 60.1343 40.1864 59.2705 40.1864V40.1864Z" fill="#43419E"/>
<path opacity="0.1" d="M46.6532 60.5263H23.3469C22.483 60.5263 21.7827 61.2266 21.7827 62.0905V65.2115C21.7827 66.0754 22.483 66.7757 23.3469 66.7757H46.6532C47.5171 66.7757 48.2174 66.0754 48.2174 65.2115V62.0905C48.2172 61.2266 47.5169 60.5263 46.6532 60.5263Z" fill="#43419E"/>
</g>
<path d="M37.3198 51.4107V55.634C37.3198 56.4974 36.6205 57.1982 35.7555 57.1982H34.2446C33.3796 57.1982 32.6804 56.4974 32.6804 55.634V51.4107H37.3198Z" fill="white"/>
<path d="M11.9552 20.4769H58.0451V45.9197H11.9552V20.4769Z" fill="#FF7530"/>
<path d="M59.2705 22.6161H10.7296C9.86566 22.6161 9.16534 21.9158 9.16534 21.0519V14.7886C9.16534 13.9247 9.86566 13.2244 10.7296 13.2244H59.2703C60.1343 13.2244 60.8346 13.9247 60.8346 14.7886V21.0519C60.8346 21.9158 60.1343 22.6161 59.2705 22.6161V22.6161Z" fill="white"/>
<path d="M16.1907 18.7958C16.6742 18.7958 17.0661 18.4038 17.0661 17.9203C17.0661 17.4368 16.6742 17.0448 16.1907 17.0448C15.7071 17.0448 15.3152 17.4368 15.3152 17.9203C15.3152 18.4038 15.7071 18.7958 16.1907 18.7958Z" fill="#43419E"/>
<path d="M18.8391 18.7958C19.3226 18.7958 19.7146 18.4038 19.7146 17.9203C19.7146 17.4368 19.3226 17.0448 18.8391 17.0448C18.3556 17.0448 17.9637 17.4368 17.9637 17.9203C17.9637 18.4038 18.3556 18.7958 18.8391 18.7958Z" fill="#43419E"/>
<path d="M21.4873 18.7958C21.9708 18.7958 22.3628 18.4038 22.3628 17.9203C22.3628 17.4368 21.9708 17.0448 21.4873 17.0448C21.0038 17.0448 20.6119 17.4368 20.6119 17.9203C20.6119 18.4038 21.0038 18.7958 21.4873 18.7958Z" fill="#43419E"/>
<path d="M39.2194 17.1368H27.2166C26.8076 17.1368 26.4421 17.4359 26.4032 17.8432C26.3586 18.3104 26.7247 18.7037 27.1829 18.7037H39.2193C39.6519 18.7037 40.0027 18.3529 40.0027 17.9203C40.0029 17.4876 39.6521 17.1368 39.2194 17.1368V17.1368Z" fill="#43419E"/>
<path d="M54.783 17.1368H42.7802C42.3711 17.1368 42.0056 17.4359 41.9667 17.8432C41.9222 18.3104 42.2883 18.7037 42.7464 18.7037H54.7828C55.2155 18.7037 55.5663 18.3529 55.5663 17.9203C55.5664 17.4876 55.2156 17.1368 54.783 17.1368V17.1368Z" fill="#43419E"/>
<path d="M59.2705 37.7376H10.7296C9.86566 37.7376 9.16534 37.0373 9.16534 36.1734V29.9101C9.16534 29.0462 9.86566 28.3459 10.7296 28.3459H59.2703C60.1343 28.3459 60.8346 29.0462 60.8346 29.9101V36.1734C60.8346 37.0374 60.1343 37.7376 59.2705 37.7376V37.7376Z" fill="white"/>
<path d="M16.1907 33.9173C16.6742 33.9173 17.0661 33.5254 17.0661 33.0419C17.0661 32.5584 16.6742 32.1664 16.1907 32.1664C15.7071 32.1664 15.3152 32.5584 15.3152 33.0419C15.3152 33.5254 15.7071 33.9173 16.1907 33.9173Z" fill="#43419E"/>
<path d="M18.8391 33.9173C19.3226 33.9173 19.7146 33.5254 19.7146 33.0419C19.7146 32.5584 19.3226 32.1664 18.8391 32.1664C18.3556 32.1664 17.9637 32.5584 17.9637 33.0419C17.9637 33.5254 18.3556 33.9173 18.8391 33.9173Z" fill="#43419E"/>
<path d="M21.4873 33.9173C21.9708 33.9173 22.3628 33.5254 22.3628 33.0419C22.3628 32.5584 21.9708 32.1664 21.4873 32.1664C21.0038 32.1664 20.6119 32.5584 20.6119 33.0419C20.6119 33.5254 21.0038 33.9173 21.4873 33.9173Z" fill="#43419E"/>
<path d="M39.2194 32.2584H27.2166C26.8076 32.2584 26.4421 32.5575 26.4032 32.9648C26.3586 33.432 26.7247 33.8253 27.1829 33.8253H39.2193C39.6519 33.8253 40.0027 33.4745 40.0027 33.0419C40.0029 32.6092 39.6521 32.2584 39.2194 32.2584V32.2584Z" fill="#43419E"/>
<path d="M54.783 32.2584H42.7802C42.3711 32.2584 42.0056 32.5575 41.9667 32.9648C41.9222 33.432 42.2883 33.8253 42.7464 33.8253H54.7828C55.2155 33.8253 55.5663 33.4745 55.5663 33.0419C55.5664 32.6092 55.2156 32.2584 54.783 32.2584V32.2584Z" fill="#43419E"/>
<path d="M59.2705 52.8594H10.7296C9.86566 52.8594 9.16534 52.1591 9.16534 51.2952V45.0319C9.16534 44.168 9.86566 43.4677 10.7296 43.4677H59.2703C60.1343 43.4677 60.8346 44.168 60.8346 45.0319V51.2952C60.8346 52.1591 60.1343 52.8594 59.2705 52.8594V52.8594Z" fill="white"/>
<path d="M16.1907 49.0391C16.6742 49.0391 17.0661 48.6471 17.0661 48.1636C17.0661 47.6801 16.6742 47.2881 16.1907 47.2881C15.7071 47.2881 15.3152 47.6801 15.3152 48.1636C15.3152 48.6471 15.7071 49.0391 16.1907 49.0391Z" fill="#43419E"/>
<path d="M18.8392 49.0391C19.3227 49.0391 19.7146 48.6471 19.7146 48.1636C19.7146 47.6801 19.3227 47.2881 18.8392 47.2881C18.3556 47.2881 17.9637 47.6801 17.9637 48.1636C17.9637 48.6471 18.3556 49.0391 18.8392 49.0391Z" fill="#43419E"/>
<path d="M21.4873 49.0391C21.9709 49.0391 22.3628 48.6471 22.3628 48.1636C22.3628 47.6801 21.9709 47.2881 21.4873 47.2881C21.0038 47.2881 20.6119 47.6801 20.6119 48.1636C20.6119 48.6471 21.0038 49.0391 21.4873 49.0391Z" fill="#43419E"/>
<path d="M39.2194 47.3801H27.2166C26.8076 47.3801 26.4421 47.6792 26.4032 48.0865C26.3586 48.5537 26.7247 48.947 27.1829 48.947H39.2193C39.6519 48.947 40.0027 48.5962 40.0027 48.1635C40.0029 47.7309 39.6521 47.3801 39.2194 47.3801V47.3801Z" fill="#43419E"/>
<path d="M54.783 47.3801H42.7802C42.3711 47.3801 42.0056 47.6792 41.9667 48.0865C41.9222 48.5537 42.2883 48.947 42.7464 48.947H54.7828C55.2155 48.947 55.5663 48.5962 55.5663 48.1635C55.5664 47.7309 55.2156 47.3801 54.783 47.3801V47.3801Z" fill="#43419E"/>
<path d="M46.6532 70.0566H23.3469C22.483 70.0566 21.7827 69.3563 21.7827 68.4924V65.3715C21.7827 64.5076 22.483 63.8073 23.3469 63.8073H46.6532C47.5171 63.8073 48.2174 64.5076 48.2174 65.3715V68.4924C48.2172 69.3563 47.5169 70.0566 46.6532 70.0566Z" fill="white"/>
<path d="M67.8555 66.1509H48.9984V65.3717C48.9984 64.0784 47.9464 63.0263 46.6531 63.0263H39.3077C38.8761 63.0263 38.5264 63.3759 38.5264 63.8075C38.5264 64.2391 38.8761 64.5888 39.3077 64.5888H46.6531C47.0848 64.5888 47.4359 64.94 47.4359 65.3717V68.4927C47.4359 68.9244 47.0848 69.2756 46.6531 69.2756H23.3469C22.9152 69.2756 22.5639 68.9244 22.5639 68.4927V65.3717C22.5639 64.94 22.9152 64.5888 23.3469 64.5888H35C35.4316 64.5888 35.7813 64.2391 35.7813 63.8075V57.9781C37.063 57.9644 38.1016 56.9188 38.1016 55.6339V53.6406H59.2705C60.5636 53.6406 61.6158 52.5886 61.6158 51.2952V45.0319C61.6158 43.7386 60.5638 42.6864 59.2705 42.6864H58.8267V38.5189H59.2705C60.5636 38.5189 61.6158 37.4669 61.6158 36.1734V29.9102C61.6158 28.6169 60.5638 27.5647 59.2705 27.5647H58.8267V23.3972H59.2705C60.5636 23.3972 61.6158 22.3452 61.6158 21.0517V14.7886C61.6158 13.4953 60.5638 12.4431 59.2705 12.4431H10.7294C9.4361 12.4431 8.38391 13.4952 8.38391 14.7886V21.0519C8.38391 22.3452 9.4361 23.3973 10.7294 23.3973H11.1731V27.5648H10.7294C9.4361 27.5648 8.38391 28.6169 8.38391 29.9103V36.1736C8.38391 37.4669 9.4361 38.5191 10.7294 38.5191H11.1731V42.6866H10.7294C9.4361 42.6866 8.38391 43.7386 8.38391 45.032V51.2953C8.38391 52.5886 9.4361 53.6408 10.7294 53.6408H31.8984V55.6342C31.8984 56.9191 32.937 57.9647 34.2186 57.9785V63.0266H23.3467C22.0534 63.0266 21.0013 64.0786 21.0013 65.372V66.1513H2.14438C1.71297 66.1513 1.36313 66.5009 1.36313 66.9325C1.36313 67.3641 1.71297 67.7138 2.14438 67.7138H21.0016V68.4928C21.0016 69.7861 22.0538 70.8383 23.347 70.8383H46.6533C47.9464 70.8383 48.9986 69.7863 48.9986 68.4928V67.7138H67.8558C68.2873 67.7138 68.637 67.3641 68.637 66.9325C68.637 66.5009 68.287 66.1509 67.8555 66.1509V66.1509ZM9.94672 21.0519V14.7886C9.94672 14.3569 10.298 14.0056 10.7297 14.0056H59.2706C59.7023 14.0056 60.0534 14.3569 60.0534 14.7886V21.0519C60.0534 21.4836 59.7023 21.8348 59.2706 21.8348H10.7294C10.2978 21.8348 9.94657 21.4836 9.94672 21.0519V21.0519ZM9.94672 36.1736V29.9103C9.94672 29.4786 10.298 29.1273 10.7297 29.1273H11.9552C12.3866 29.1273 12.7364 28.7777 12.7364 28.3461C12.7364 28.3442 12.7359 28.3427 12.7359 28.3408V23.3973H57.2644V27.5648H16.263C15.8316 27.5648 15.4817 27.9145 15.4817 28.3461C15.4817 28.7777 15.8316 29.1273 16.263 29.1273H59.2706C59.7023 29.1273 60.0534 29.4786 60.0534 29.9103V36.1736C60.0534 36.6053 59.7023 36.9566 59.2706 36.9566H10.7295C10.298 36.9564 9.94672 36.6052 9.94672 36.1736V36.1736ZM12.7358 38.5189H57.2642V42.6864H12.7358V38.5189ZM9.94672 51.2952V45.0319C9.94672 44.6002 10.298 44.2489 10.7297 44.2489H59.2706C59.7023 44.2489 60.0534 44.6002 60.0534 45.0319V51.2952C60.0534 51.7269 59.7023 52.0781 59.2706 52.0781H10.7294C10.2978 52.0781 9.94657 51.7269 9.94672 51.2952V51.2952ZM33.4611 55.6341V53.6406H36.5391V55.6341C36.5391 56.0658 36.1878 56.417 35.7561 56.417H34.2441C33.8123 56.4169 33.4611 56.0656 33.4611 55.6341V55.6341Z" fill="#43419E"/>
<path d="M58.4979 62.3613C58.0664 62.3613 57.7167 62.0116 57.7167 61.58C57.7167 61.0608 57.2942 60.6383 56.775 60.6383C56.3434 60.6383 55.9937 60.2886 55.9937 59.857C55.9937 59.4255 56.3434 59.0758 56.775 59.0758C57.2942 59.0758 57.7167 58.6533 57.7167 58.1339C57.7167 57.7023 58.0664 57.3527 58.4979 57.3527C58.9295 57.3527 59.2792 57.7023 59.2792 58.1339C59.2792 58.6533 59.7017 59.0758 60.2209 59.0758C60.6525 59.0758 61.0021 59.4255 61.0021 59.857C61.0021 60.2886 60.6525 60.6383 60.2209 60.6383C59.7017 60.6383 59.2792 61.0608 59.2792 61.58C59.2792 62.0116 58.9293 62.3613 58.4979 62.3613Z" fill="#FF7530"/>
<path d="M66.6365 55.6035C66.2049 55.6035 65.8552 55.2538 65.8552 54.8223C65.8552 54.303 65.4327 53.8805 64.9135 53.8805C64.482 53.8805 64.1323 53.5309 64.1323 53.0993C64.1323 52.6677 64.482 52.318 64.9135 52.318C65.4327 52.318 65.8552 51.8955 65.8552 51.3763C65.8552 50.9448 66.2049 50.5951 66.6365 50.5951C67.0681 50.5951 67.4177 50.9448 67.4177 51.3763C67.4177 51.8955 67.8402 52.318 68.3595 52.318C68.791 52.318 69.1407 52.6677 69.1407 53.0993C69.1407 53.5309 68.791 53.8805 68.3595 53.8805C67.8402 53.8805 67.4177 54.303 67.4177 54.8223C67.4177 55.2538 67.0679 55.6035 66.6365 55.6035Z" fill="#FF7530"/>
<path d="M3.36025 28.7211C3.16025 28.7211 2.9604 28.6449 2.80775 28.4922L1.08806 26.7725C0.782903 26.4675 0.782903 25.9728 1.08806 25.6678L2.80775 23.9482C3.1129 23.643 3.60743 23.643 3.91259 23.9482L5.63228 25.6678C5.93743 25.9728 5.93743 26.4675 5.63228 26.7725L3.91259 28.4922C3.76009 28.6449 3.56025 28.7211 3.36025 28.7211V28.7211ZM2.7454 26.2203L3.36025 26.8352L3.97509 26.2203L3.36025 25.6055L2.7454 26.2203Z" fill="#FF7530"/>
<path d="M6.28603 63.4218C6.08603 63.4218 5.88619 63.3456 5.73353 63.1929L4.01369 61.4734C3.70853 61.1684 3.70853 60.6737 4.01369 60.3687L5.73338 58.649C6.03853 58.3439 6.53306 58.3439 6.83822 58.649L8.55791 60.3687C8.86306 60.6737 8.86306 61.1684 8.55791 61.4734L6.83822 63.1931C6.68588 63.3456 6.48603 63.4218 6.28603 63.4218V63.4218ZM5.67119 60.9211L6.28603 61.5359L6.90088 60.9211L6.28603 60.3062L5.67119 60.9211Z" fill="#FF7530"/>
<defs>
<linearGradient id="paint0_linear" x1="72.4594" y1="2.17778" x2="7.37752" y2="75.7673" gradientUnits="userSpaceOnUse">
<stop stop-color="#FFECE2" stop-opacity="0"/>
<stop offset="1" stop-color="#FFCCB2"/>
</linearGradient>
</defs>
</svg>
