<svg width="80" height="80" viewBox="0 0 80 80" fill="none" xmlns="http://www.w3.org/2000/svg">
<g clip-path="url(#clip0)">
<path d="M7.92763 4.28127C17.8964 -1.65623 30.787 -1.3281 40.5683 4.75002C46.0683 8.1719 50.3183 13.0938 55.1308 17.3438C59.3495 21.0625 64.2558 23.7188 68.6308 27.2188C84.4433 39.9375 82.9433 74.25 60.662 78.7969C51.0058 80.7657 37.8183 81.4063 32.1464 71.9844C26.7401 63 24.9276 53.7969 14.3495 49.0313C10.662 47.375 4.50576 47.4532 2.02138 43.7969C-1.13487 39.1875 2.78701 34.4219 4.86513 30.4063C7.55263 25.2344 8.11513 20.1407 6.22451 14.5938C4.61513 9.87503 3.47451 7.75003 7.92763 4.28127V4.28127Z" fill="url(#paint0_linear)"/>
<path opacity="0.1" d="M70 33.9063H64.6406C63.9063 33.9063 63.3125 34.5 63.3125 35.2344V35.75H59.6875V10.5782C59.6875 10.1407 59.3437 9.79692 58.9062 9.79692H29.6094L20.3125 19.0938V25.5313C16.625 26.2813 13.8437 29.5313 13.8437 33.4375C13.8437 33.5938 13.8437 33.75 13.8594 33.9063H10C9.26563 33.9063 8.67188 34.5 8.67188 35.2344V59.6719C8.67188 60.4063 9.26563 61 10 61H15.3594C16.0938 61 16.6875 60.4063 16.6875 59.6719V58.75H21.25C21.1406 59.7188 21.4531 60.7344 22.1875 61.4688C23.1562 62.4375 24.5625 62.6719 25.7656 62.2032L26.1406 62.5782C25.6563 63.7657 25.9063 65.1875 26.875 66.1563C27.8437 67.125 29.25 67.3594 30.4531 66.8907L30.8281 67.2657C30.3438 68.4532 30.5938 69.875 31.5625 70.8438C32.5312 71.8125 33.9375 72.0469 35.1406 71.5782L35.5156 71.9532C35.0313 73.1407 35.2813 74.5625 36.25 75.5313C37.2187 76.5 38.625 76.7344 39.8281 76.2657L40.2969 76.7344C41.5937 78.0313 43.6875 78.0313 44.9844 76.7344C46.2812 75.4375 46.2812 73.3438 44.9844 72.0469C46.2812 73.3438 48.375 73.3438 49.6719 72.0469C50.3125 71.4063 50.6406 70.5469 50.6406 69.7032C50.6406 68.8594 50.3125 68.0157 49.6719 67.3594C50.9687 68.6563 53.0625 68.6563 54.3594 67.3594C55.6562 66.0625 55.6562 63.9688 54.3594 62.6719C55.6406 63.9532 57.7031 63.9688 59 62.7188C60.0938 61.6719 60.2656 60.0313 59.5937 58.75H63.3594V59.6719C63.3594 60.4063 63.9531 61 64.6875 61H70C70.7344 61 71.3281 60.4063 71.3281 59.6719V35.2344C71.3438 34.5 70.7344 33.9063 70 33.9063V33.9063Z" fill="#43419E"/>
<path d="M59.6875 44.4063V6.82817C59.6875 6.39067 59.3437 6.04692 58.9062 6.04692H29.6094L20.3125 15.3438V44.4063H59.6875Z" fill="white"/>
<path d="M20.3125 15.3438H28.8281C29.2656 15.3438 29.6094 15 29.6094 14.5625V6.04692L20.3125 15.3438Z" fill="#FF7530"/>
<path d="M42.0782 33.1718L24.7657 50.4843C23.4532 51.7968 23.4219 53.9687 24.7657 55.2656C26.0625 56.5156 28.125 56.4999 29.4063 55.2187C28.1094 56.5156 28.1094 58.6093 29.4063 59.9062C30.7032 61.2031 32.7969 61.2031 34.0938 59.9062C32.7969 61.2031 32.7969 63.2968 34.0938 64.5937C35.3907 65.8906 37.4844 65.8906 38.7813 64.5937C37.4844 65.8906 37.4844 67.9843 38.7813 69.2812C40.0782 70.5781 42.1719 70.5781 43.4688 69.2812L57.7188 55.0312H66.1875V32H44.9063C43.8438 32 42.8282 32.4218 42.0782 33.1718V33.1718Z" fill="white"/>
<path d="M58.9688 58.9843C57.6719 60.2343 55.6094 60.2187 54.3281 58.9375C55.625 60.2343 55.625 62.3281 54.3281 63.625C53.0313 64.9218 50.9375 64.9218 49.6406 63.625C50.2813 64.2656 50.6094 65.125 50.6094 65.9687C50.6094 66.8125 50.2813 67.6562 49.6406 68.3125C48.3438 69.6093 46.25 69.6093 44.9531 68.3125C46.25 69.6093 46.25 71.7031 44.9531 73C43.6563 74.2968 41.5625 74.2968 40.2656 73L22.2969 55.0312H13.8438V32H35.1094C36.1719 32 37.1875 32.4218 37.9375 33.1718L58.9688 54.2031C60.2813 55.5156 60.3125 57.7031 58.9688 58.9843Z" fill="white"/>
<path d="M40.9218 71.7812L44.0312 68.6718C45.3281 67.3749 45.3281 65.2812 44.0312 63.9843C42.7343 62.6875 40.6406 62.6875 39.3437 63.9843L36.2343 67.0937C34.9374 68.3906 34.9374 70.4843 36.2343 71.7812C37.5312 73.0781 39.6249 73.0781 40.9218 71.7812Z" fill="white"/>
<path d="M36.2343 67.0937L39.3437 63.9843C40.6406 62.6875 40.6406 60.5937 39.3437 59.2968C38.0468 58 35.9531 58 34.6562 59.2968L31.5625 62.4218C30.2656 63.7187 30.2656 65.8125 31.5625 67.1093C32.8437 68.3906 34.9375 68.3906 36.2343 67.0937Z" fill="white"/>
<path d="M31.5625 62.4219L34.6718 59.3125C35.9687 58.0156 35.9687 55.9219 34.6718 54.625C33.375 53.3281 31.2812 53.3281 29.9843 54.625L26.875 57.7344C25.5781 59.0312 25.5781 61.125 26.875 62.4219C28.1718 63.7031 30.2656 63.7031 31.5625 62.4219Z" fill="white"/>
<path d="M26.875 57.7343L29.9843 54.625C31.2812 53.3281 31.2812 51.2344 29.9843 49.9375C28.6875 48.6406 26.5937 48.6406 25.2968 49.9375L22.1875 53.0469C20.8906 54.3437 20.8906 56.4375 22.1875 57.7343C23.4843 59.0312 25.5781 59.0312 26.875 57.7343Z" fill="white"/>
<path d="M54.4843 32H44.8906C43.8281 32 42.8124 32.4218 42.0624 33.1718L34.5937 40.6406C33.2968 41.9375 33.2968 44.0625 34.5937 45.3593C35.8906 46.6562 38.0156 46.6562 39.3124 45.3593L43.8437 40.8281C44.5624 40.1093 45.5312 39.7031 46.5468 39.7031H54.4843V32Z" fill="white"/>
<path d="M16.6875 31.5V55.9374C16.6875 56.6718 16.0937 57.2656 15.3594 57.2656H10C9.26562 57.2656 8.67188 56.6718 8.67188 55.9374V31.5C8.67188 30.7656 9.26562 30.1718 10 30.1718H15.3594C16.0781 30.1562 16.6875 30.75 16.6875 31.5Z" fill="#FF7530"/>
<path d="M70 57.2656H64.6407C63.9063 57.2656 63.3126 56.6719 63.3126 55.9375V31.4844C63.3126 30.75 63.9063 30.1562 64.6407 30.1562H70C70.7344 30.1562 71.3282 30.75 71.3282 31.4844V55.9375C71.3438 56.6719 70.7344 57.2656 70 57.2656Z" fill="#FF7530"/>
<path d="M41.5781 28.3126H39.4375C38.5781 28.3126 37.875 27.6095 37.875 26.7501V11.8595C37.875 11.0001 38.5781 10.297 39.4375 10.297H41.5781C42.4375 10.297 43.1406 11.0001 43.1406 11.8595V26.7501C43.1406 27.6095 42.4531 28.3126 41.5781 28.3126ZM39.4531 11.8595V26.7501H41.5937V11.8595H39.4531Z" fill="#43419E"/>
<path d="M38.6719 20.1252V26.7502C38.6719 27.1877 39.0156 27.5314 39.4531 27.5314H41.5938C42.0313 27.5314 42.375 27.1877 42.375 26.7502V20.1252H38.6719Z" fill="#FF7530"/>
<path d="M47.9219 28.3126H45.7812C44.9219 28.3126 44.2188 27.6095 44.2188 26.7501V16.547C44.2188 15.6876 44.9219 14.9845 45.7812 14.9845H47.9219C48.7813 14.9845 49.4844 15.6876 49.4844 16.547V26.7501C49.4844 27.6095 48.7813 28.3126 47.9219 28.3126ZM45.7812 16.547V26.7501H47.9219V16.547H45.7812Z" fill="#43419E"/>
<path d="M45 24.8127V26.7502C45 27.1877 45.3437 27.5314 45.7812 27.5314H47.9219C48.3594 27.5314 48.7031 27.1877 48.7031 26.7502V24.8127H45Z" fill="#FF7530"/>
<path d="M54.25 27.5313H52.1094C51.6719 27.5313 51.3281 27.1876 51.3281 26.7501V11.8595C51.3281 11.422 51.6719 11.0782 52.1094 11.0782H54.25C54.6875 11.0782 55.0313 11.422 55.0313 11.8595V26.7501C55.0313 27.172 54.6875 27.5313 54.25 27.5313Z" fill="white"/>
<path d="M51.3437 15.4377V26.7502C51.3437 27.1877 51.6874 27.5314 52.1249 27.5314H54.2655C54.703 27.5314 55.0468 27.1877 55.0468 26.7502V15.4377C55.0312 15.4377 51.3437 15.4377 51.3437 15.4377V15.4377Z" fill="#FF7530"/>
<path d="M41.5781 28.3126H39.4375C38.5781 28.3126 37.875 27.6095 37.875 26.7501V11.8595C37.875 11.0001 38.5781 10.297 39.4375 10.297H41.5781C42.4375 10.297 43.1406 11.0001 43.1406 11.8595V26.7501C43.1406 27.6095 42.4531 28.3126 41.5781 28.3126ZM39.4531 11.8595V26.7501H41.5937V11.8595H39.4531Z" fill="#43419E"/>
<path d="M47.9219 28.3126H45.7812C44.9219 28.3126 44.2188 27.6095 44.2188 26.7501V16.547C44.2188 15.6876 44.9219 14.9845 45.7812 14.9845H47.9219C48.7813 14.9845 49.4844 15.6876 49.4844 16.547V26.7501C49.4844 27.6095 48.7813 28.3126 47.9219 28.3126ZM45.7812 16.547V26.7501H47.9219V16.547H45.7812Z" fill="#43419E"/>
<path d="M54.25 28.3126H52.1094C51.25 28.3126 50.5469 27.6095 50.5469 26.7501V11.8595C50.5469 11.0001 51.25 10.297 52.1094 10.297H54.25C55.1094 10.297 55.8125 11.0001 55.8125 11.8595V26.7501C55.8125 27.6095 55.1094 28.3126 54.25 28.3126ZM52.125 11.8595V26.7501H54.2656V11.8595H52.125Z" fill="#43419E"/>
<path d="M34.4531 21.6719H32.8125C32.375 21.6719 32.0312 21.3282 32.0312 20.8907C32.0312 20.4532 32.375 20.1094 32.8125 20.1094H34.4531C34.8906 20.1094 35.2344 20.4532 35.2344 20.8907C35.2344 21.3282 34.8906 21.6719 34.4531 21.6719Z" fill="#43419E"/>
<path d="M29.2812 21.6719H28.5781C28.1406 21.6719 27.7968 21.3282 27.7968 20.8907C27.7968 20.4532 28.1406 20.1094 28.5781 20.1094H29.2812C29.7187 20.1094 30.0625 20.4532 30.0625 20.8907C30.0625 21.3282 29.7187 21.6719 29.2812 21.6719Z" fill="#43419E"/>
<path d="M34.4531 24.8438H25.75C25.3125 24.8438 24.9687 24.5 24.9687 24.0625C24.9687 23.625 25.3125 23.2812 25.75 23.2812H34.4531C34.8906 23.2812 35.2343 23.625 35.2343 24.0625C35.2343 24.5 34.8906 24.8438 34.4531 24.8438Z" fill="#43419E"/>
<path d="M34.4531 27.5468H25.75C25.3125 27.5468 24.9687 27.2031 24.9687 26.7656C24.9687 26.3281 25.3125 25.9843 25.75 25.9843H34.4531C34.8906 25.9843 35.2343 26.3281 35.2343 26.7656C35.2343 27.1875 34.8906 27.5468 34.4531 27.5468Z" fill="#43419E"/>
<path d="M21.9063 37.7501C26.3591 37.7501 29.9688 34.1404 29.9688 29.6876C29.9688 25.2348 26.3591 21.6251 21.9063 21.6251C17.4535 21.6251 13.8438 25.2348 13.8438 29.6876C13.8438 34.1404 17.4535 37.7501 21.9063 37.7501Z" fill="white"/>
<path d="M70 29.375H64.6406C63.5625 29.375 62.6719 30.1875 62.5469 31.2188H60.4688V6.82817C60.4688 5.9688 59.7656 5.26567 58.9062 5.26567H51.7969C51.3594 5.26567 51.0156 5.60942 51.0156 6.04692C51.0156 6.48442 51.3594 6.82817 51.7969 6.82817H58.9062V31.2188H44.8906C43.6094 31.2188 42.4063 31.7188 41.5156 32.625L40 34.1407L38.4844 32.625C37.5781 31.7188 36.375 31.2188 35.1094 31.2188H30.625C30.7188 30.7188 30.7656 30.2188 30.7656 29.6875C30.7656 24.8125 26.7969 20.8438 21.9219 20.8438C21.6406 20.8438 21.375 20.8594 21.1094 20.8907V16.1407H28.8438C29.7031 16.1407 30.4063 15.4375 30.4063 14.5782V6.8438H46.6563C47.0938 6.8438 47.4375 6.50005 47.4375 6.06255C47.4375 5.62505 47.0938 5.2813 46.6563 5.2813H29.625C29.4219 5.2813 29.2188 5.35942 29.0781 5.51567L19.7812 14.8125C19.6406 14.9532 19.5469 15.1563 19.5469 15.3594V21.1875C15.9062 22.1875 13.2031 25.4688 13.0625 29.375H10C8.82812 29.375 7.89062 30.3282 7.89062 31.4844V55.9375C7.89062 57.1094 8.84375 58.0469 10 58.0469H15.3594C16.5313 58.0469 17.4688 57.0938 17.4688 55.9375V55.7969H20.4688C20.5625 56.7032 20.9531 57.5938 21.6406 58.2969C22.4063 59.0625 23.4375 59.5 24.5312 59.5C24.75 59.5 24.9688 59.4844 25.1719 59.4532C24.9688 60.7032 25.3594 62.0313 26.3125 62.9844C27.1094 63.7813 28.1562 64.1875 29.2031 64.1875C29.4219 64.1875 29.6406 64.1719 29.8438 64.1407C29.6406 65.3907 30.0313 66.7188 30.9844 67.6719C31.7813 68.4688 32.8281 68.875 33.875 68.875C34.0938 68.875 34.3125 68.8594 34.5156 68.8282C34.3125 70.0782 34.7031 71.4063 35.6562 72.3594C36.4531 73.1563 37.5 73.5625 38.5469 73.5625C38.8906 73.5625 39.2344 73.5157 39.5625 73.4375L39.7031 73.5782C40.4688 74.3438 41.5 74.7813 42.5938 74.7813C43.6875 74.7813 44.7188 74.3594 45.4844 73.5782C46.4531 72.625 46.8281 71.2969 46.625 70.0469C47.875 70.25 49.2031 69.8594 50.1562 68.9063C50.9219 68.1407 51.3594 67.1094 51.3594 66.0157C51.3594 65.7969 51.3437 65.5782 51.3125 65.375C51.5156 65.4063 51.7344 65.4219 51.9531 65.4219C53.0469 65.4219 54.0781 65 54.8438 64.2188C55.8125 63.25 56.1875 61.9219 55.9844 60.6719C57.2187 60.8594 58.5156 60.5 59.4688 59.5938C60.25 58.8438 60.6875 57.8125 60.7031 56.7032C60.7031 56.4063 60.6719 56.125 60.625 55.8282H62.5V55.9688C62.5 57.1407 63.4531 58.0782 64.6094 58.0782H70C71.1719 58.0782 72.1094 57.125 72.1094 55.9688V31.4844C72.125 30.3282 71.1719 29.375 70 29.375V29.375ZM22.1875 14.5625L28.8281 7.92192V14.5625H22.1875ZM21.9062 22.4063C25.9219 22.4063 29.1875 25.6719 29.1875 29.6875C29.1875 33.7032 25.9219 36.9688 21.9062 36.9688C17.8906 36.9688 14.625 33.7032 14.625 29.6875C14.625 25.6719 17.8906 22.4063 21.9062 22.4063ZM15.3437 56.4844H10C9.70313 56.4844 9.45312 56.2344 9.45312 55.9375V31.4844C9.45312 31.1875 9.70313 30.9375 10 30.9375H13.1562C13.4531 33 14.4531 34.8282 15.9063 36.1875V55.9375C15.9063 56.2344 15.6562 56.4844 15.3437 56.4844ZM24.5312 57.9219C23.8594 57.9219 23.2188 57.6563 22.75 57.1875C21.7656 56.2032 21.7656 54.5938 22.75 53.6094L25.8594 50.5C26.3437 50.0157 26.9687 49.7657 27.6406 49.7657C28.3125 49.7657 28.9531 50.0313 29.4219 50.5C30.4063 51.4844 30.4063 53.0938 29.4219 54.0782L26.3281 57.1875C25.8438 57.6563 25.2031 57.9219 24.5312 57.9219ZM29.2188 62.6094C28.5469 62.6094 27.9063 62.3438 27.4375 61.875C26.4531 60.8907 26.4531 59.2813 27.4375 58.2969L30.5469 55.1875C31.0312 54.7032 31.6562 54.4532 32.3281 54.4532C33 54.4532 33.6406 54.7188 34.1094 55.1875C35.0938 56.1719 35.0938 57.7813 34.1094 58.7657L31 61.875C30.5312 62.3438 29.8906 62.6094 29.2188 62.6094ZM33.8906 67.2813C33.2187 67.2813 32.5781 67.0157 32.1094 66.5469C31.125 65.5625 31.125 63.9532 32.1094 62.9688L35.2187 59.8594C35.7187 59.3594 36.3594 59.125 37 59.125C37.6406 59.125 38.2969 59.375 38.7812 59.8594C39.2656 60.3438 39.5156 60.9688 39.5156 61.6407C39.5156 62.3125 39.25 62.9532 38.7812 63.4219L35.6719 66.5313C35.2031 67.0157 34.5781 67.2813 33.8906 67.2813ZM36.7812 71.2188C35.7969 70.2344 35.7969 68.625 36.7812 67.6407L39.8906 64.5313C40.3906 64.0313 41.0313 63.7969 41.6719 63.7969C42.3125 63.7969 42.9688 64.0469 43.4531 64.5313C44.4375 65.5157 44.4375 67.125 43.4531 68.1094L40.3438 71.2188C39.375 72.2188 37.7812 72.2188 36.7812 71.2188V71.2188ZM44.4219 72.4375C43.9375 72.9219 43.3125 73.1719 42.6406 73.1719C42.0781 73.1719 41.5469 72.9844 41.1094 72.6563C41.2344 72.5625 41.3594 72.4532 41.4844 72.3282L44.5937 69.2188L44.6719 69.1407C45 69.5782 45.1719 70.0938 45.1719 70.6407C45.1563 71.3125 44.8906 71.9532 44.4219 72.4375V72.4375ZM60 54.2344C59.8594 54.0313 59.7031 53.8282 59.5156 53.6563L49.0469 43.1875C48.7344 42.875 48.25 42.875 47.9375 43.1875C47.625 43.5 47.625 43.9844 47.9375 44.2969L58.4062 54.7657C58.9062 55.2657 59.1875 55.9532 59.1719 56.6563C59.1719 57.3438 58.9062 57.9688 58.4219 58.4219C57.4375 59.375 55.8438 59.3594 54.875 58.3907L44.9375 48.4532C44.625 48.1407 44.1406 48.1407 43.8281 48.4532C43.5156 48.7657 43.5156 49.25 43.8281 49.5625L53.7656 59.5C54.75 60.4844 54.75 62.0938 53.7656 63.0782C52.7813 64.0625 51.1719 64.0625 50.1875 63.0782L40.25 53.1407C39.9375 52.8282 39.4531 52.8282 39.1406 53.1407C38.8281 53.4532 38.8281 53.9375 39.1406 54.25L49.0781 64.1875C49.5625 64.6719 49.8125 65.2969 49.8125 65.9688C49.8125 66.6407 49.5469 67.2813 49.0781 67.75C48.0938 68.7344 46.4844 68.7344 45.5 67.75C46.0469 66.2969 45.7344 64.5938 44.5625 63.4219C43.6094 62.4688 42.2813 62.0782 41.0313 62.2813C41.0625 62.0782 41.0781 61.8594 41.0781 61.6407C41.0781 60.5469 40.6562 59.5157 39.875 58.75C38.9062 57.7813 37.5938 57.4063 36.3438 57.6094C36.5469 56.3594 36.1563 55.0313 35.2031 54.0782C34.4375 53.3125 33.4063 52.875 32.3125 52.875C32.0938 52.875 31.875 52.8907 31.6719 52.9219C31.875 51.6719 31.4844 50.3438 30.5312 49.3907C29.7656 48.625 28.7344 48.1875 27.6406 48.1875C26.5469 48.1875 25.5156 48.6094 24.75 49.3907L21.6406 52.5C21.1406 53 20.7969 53.5938 20.6094 54.2344H17.4688V37.3438C18.7813 38.1094 20.2969 38.5469 21.9062 38.5469C25.7031 38.5469 28.9375 36.1407 30.2031 32.7813H35.1094C35.9687 32.7813 36.7813 33.1094 37.3906 33.7188L38.9062 35.2344L34.0625 40.0782C33.2812 40.8594 32.8594 41.8907 32.8594 42.9844C32.8594 44.0782 33.2812 45.125 34.0625 45.8907C34.8594 46.6875 35.9219 47.0938 36.9688 47.0938C38.0156 47.0938 39.0781 46.6875 39.875 45.8907L44.4063 41.3594C44.9844 40.7813 45.75 40.4688 46.5625 40.4688H54.5C54.9375 40.4688 55.2812 40.125 55.2812 39.6875C55.2812 39.25 54.9375 38.9063 54.5 38.9063H46.5625C45.3281 38.9063 44.1719 39.3907 43.2969 40.25L38.7656 44.7813C37.7656 45.7813 36.1563 45.7813 35.1562 44.7813C34.6719 44.2969 34.4062 43.6563 34.4062 42.9688C34.4062 42.2813 34.6719 41.6407 35.1562 41.1563L42.625 33.6875C43.2344 33.0782 44.0469 32.75 44.9062 32.75H62.5469V54.2032L60 54.2344ZM70.5625 55.9375C70.5625 56.2344 70.3125 56.4844 70.0156 56.4844H64.6562C64.3594 56.4844 64.1094 56.2344 64.1094 55.9375V31.4844C64.1094 31.1875 64.3594 30.9375 64.6562 30.9375H70C70.2969 30.9375 70.5469 31.1875 70.5469 31.4844V55.9375H70.5625Z" fill="#43419E"/>
<path d="M22.8125 28.9062H22.6875V27.6562H23.9219C24.3594 27.6562 24.7031 27.3125 24.7031 26.875C24.7031 26.4375 24.3594 26.0937 23.9219 26.0937H22.6875V25.8281C22.6875 25.3906 22.3437 25.0468 21.9062 25.0468C21.4687 25.0468 21.125 25.3906 21.125 25.8281V26.0937H21C19.7969 26.0937 18.8125 27.0781 18.8125 28.2812C18.8125 29.4843 19.7969 30.4687 21 30.4687H21.125V31.7187H19.8906C19.4531 31.7187 19.1094 32.0625 19.1094 32.5C19.1094 32.9375 19.4531 33.2812 19.8906 33.2812H21.125V33.5468C21.125 33.9843 21.4687 34.3281 21.9062 34.3281C22.3437 34.3281 22.6875 33.9843 22.6875 33.5468V33.2812H22.8125C24.0156 33.2812 25 32.2968 25 31.0937C25 29.8906 24.0156 28.9062 22.8125 28.9062ZM21 28.9062C20.6562 28.9062 20.375 28.625 20.375 28.2812C20.375 27.9375 20.6562 27.6562 21 27.6562H21.125V28.9062H21ZM22.8125 31.7187H22.6875V30.4687H22.8125C23.1562 30.4687 23.4375 30.75 23.4375 31.0937C23.4375 31.4375 23.1562 31.7187 22.8125 31.7187Z" fill="#43419E"/>
<path d="M15.0938 19.6095C14.8906 19.6095 14.6875 19.5313 14.5469 19.3751L13.8437 18.672L13.1406 19.3751C12.8281 19.6876 12.3438 19.6876 12.0313 19.3751C11.7187 19.0626 11.7187 18.5782 12.0313 18.2657L13.2813 17.0157C13.5938 16.7032 14.0781 16.7032 14.3906 17.0157L15.6406 18.2657C15.9531 18.5782 15.9531 19.0626 15.6406 19.3751C15.4844 19.5313 15.2969 19.6095 15.0938 19.6095Z" fill="#FF7530"/>
<path d="M27.6094 71C27.4063 71 27.2032 70.9219 27.0625 70.7657L26.3594 70.0625L25.6563 70.7657C25.3438 71.0782 24.8594 71.0782 24.5469 70.7657C24.2344 70.4532 24.2344 69.9688 24.5469 69.6563L25.7969 68.4063C26.1094 68.0938 26.5938 68.0938 26.9063 68.4063L28.1563 69.6563C28.4688 69.9688 28.4688 70.4532 28.1563 70.7657C28.0157 70.9219 27.8125 71 27.6094 71Z" fill="#FF7530"/>
<path d="M68.4688 22.8125H68.0001V22.3438C68.0001 21.9063 67.6563 21.5625 67.2188 21.5625C66.7813 21.5625 66.4376 21.9063 66.4376 22.3438V22.8125H65.9688C65.5313 22.8125 65.1876 23.1563 65.1876 23.5938C65.1876 24.0312 65.5313 24.375 65.9688 24.375H66.4376V24.8438C66.4376 25.2812 66.7813 25.625 67.2188 25.625C67.6563 25.625 68.0001 25.2812 68.0001 24.8438V24.375H68.4688C68.9063 24.375 69.2501 24.0312 69.2501 23.5938C69.2501 23.1563 68.9063 22.8125 68.4688 22.8125Z" fill="#FF7530"/>
<path d="M20.8437 65.8438H20.375V65.3751C20.375 64.9376 20.0312 64.5938 19.5937 64.5938C19.1562 64.5938 18.8125 64.9376 18.8125 65.3751V65.8438H18.3437C17.9062 65.8438 17.5625 66.1876 17.5625 66.6251C17.5625 67.0626 17.9062 67.4063 18.3437 67.4063H18.8125V67.8751C18.8125 68.3126 19.1562 68.6563 19.5937 68.6563C20.0312 68.6563 20.375 68.3126 20.375 67.8751V67.4063H20.8437C21.2812 67.4063 21.625 67.0626 21.625 66.6251C21.625 66.1876 21.2812 65.8438 20.8437 65.8438Z" fill="#FF7530"/>
<path d="M67.25 16.7501C67.0469 16.7501 66.8437 16.672 66.7031 16.5157L66 15.8126L65.4063 16.4064C65.0938 16.7189 64.6094 16.7189 64.2969 16.4064C63.9844 16.0939 63.9844 15.6095 64.2969 15.297L65.4375 14.1564C65.75 13.8439 66.2344 13.8439 66.5469 14.1564L67.7969 15.4064C68.1094 15.7189 68.1094 16.2032 67.7969 16.5157C67.6406 16.672 67.4531 16.7501 67.25 16.7501Z" fill="#FF7530"/>
</g>
<defs>
<linearGradient id="paint0_linear" x1="79.1464" y1="40.0002" x2="0.833566" y2="40.0002" gradientUnits="userSpaceOnUse">
<stop stop-color="#FFECE2" stop-opacity="0"/>
<stop offset="1" stop-color="#FFCCB2"/>
</linearGradient>
<clipPath id="clip0">
<rect width="80" height="80" fill="white"/>
</clipPath>
</defs>
</svg>
