<svg width="80" height="80" viewBox="0 0 80 80" fill="none" xmlns="http://www.w3.org/2000/svg">
<path d="M78.2147 31.3439C79.3366 28.812 79.9711 26.0161 79.9989 23.075C80.1058 11.8295 71.216 2.43449 59.98 1.95528C56.2939 1.79809 52.8074 2.5945 49.7464 4.11825C43.6025 7.17684 36.397 7.17684 30.2531 4.11825C27.1924 2.5945 23.7058 1.79809 20.0197 1.95528C8.78408 2.43465 -0.105768 11.8293 0.000950829 23.075C0.0289196 26.0161 0.663295 28.812 1.78517 31.3439C4.22704 36.8547 4.22704 43.1454 1.78517 48.6564C0.663295 51.1882 0.0287633 53.9843 0.000950829 56.9254C-0.105768 68.1711 8.78408 77.5657 20.02 78.045C23.7061 78.2021 27.1927 77.4057 30.2535 75.882C36.3974 72.8234 43.6027 72.8234 49.7464 75.882C52.8072 77.4057 56.2939 78.2021 59.98 78.045C71.2158 77.5657 80.1056 68.1709 79.9989 56.9254C79.971 53.9843 79.3366 51.1884 78.2147 48.6565C75.7728 43.1454 75.7728 36.8547 78.2147 31.3439V31.3439Z" fill="url(#paint0_linear)"/>
<path d="M39.5554 9.87395H39.0867V9.4052C39.0867 8.97363 38.7368 8.62395 38.3054 8.62395C37.874 8.62395 37.5242 8.97363 37.5242 9.4052V9.87395H37.0554C36.624 9.87395 36.2742 10.2236 36.2742 10.6552C36.2742 11.0868 36.624 11.4364 37.0554 11.4364H37.5242V11.9052C37.5242 12.3368 37.874 12.6864 38.3054 12.6864C38.7368 12.6864 39.0867 12.3368 39.0867 11.9052V11.4364H39.5554C39.9868 11.4364 40.3367 11.0868 40.3367 10.6552C40.3367 10.2236 39.9868 9.87395 39.5554 9.87395V9.87395Z" fill="#FF7530"/>
<path d="M64.0915 70.1028H63.6227V69.634C63.6227 69.2024 63.2731 68.8528 62.8415 68.8528C62.4099 68.8528 62.0602 69.2024 62.0602 69.634V70.1028H61.5915C61.1599 70.1028 60.8102 70.4524 60.8102 70.884C60.8102 71.3156 61.1599 71.6653 61.5915 71.6653H62.0602V72.134C62.0602 72.5656 62.4099 72.9153 62.8415 72.9153C63.2731 72.9153 63.6227 72.5656 63.6227 72.134V71.6653H64.0915C64.5231 71.6653 64.8727 71.3156 64.8727 70.884C64.8727 70.4524 64.5231 70.1028 64.0915 70.1028Z" fill="#FF7530"/>
<path d="M9.36804 12.3739H8.89929V11.9052C8.89929 11.4736 8.54945 11.1239 8.11804 11.1239C7.68664 11.1239 7.33679 11.4736 7.33679 11.9052V12.3739H6.86804C6.43664 12.3739 6.08679 12.7236 6.08679 13.1552C6.08679 13.5868 6.43664 13.9364 6.86804 13.9364H7.33679V14.4052C7.33679 14.8368 7.68664 15.1864 8.11804 15.1864C8.54945 15.1864 8.89929 14.8368 8.89929 14.4052V13.9364H9.36804C9.79945 13.9364 10.1493 13.5868 10.1493 13.1552C10.1493 12.7236 9.79945 12.3739 9.36804 12.3739Z" fill="#FF7530"/>
<path d="M56.6195 70.1028C56.4197 70.1028 56.2195 70.0265 56.0672 69.8738L55.3695 69.1763L54.6719 69.8738C54.367 70.179 53.872 70.179 53.5672 69.8738C53.262 69.5688 53.262 69.0742 53.5672 68.7692L54.8172 67.5192C55.122 67.214 55.617 67.214 55.9219 67.5192L57.1719 68.7692C57.477 69.0742 57.477 69.5688 57.1719 69.8738C57.0195 70.0265 56.8194 70.1028 56.6195 70.1028Z" fill="#FF7530"/>
<path d="M32.7703 7.52828C32.5703 7.52828 32.3705 7.45203 32.2178 7.29938L31.5203 6.60188L30.8228 7.29938C30.5177 7.60453 30.0232 7.60453 29.718 7.29938C29.4128 6.99438 29.4128 6.49969 29.718 6.19469L30.968 4.94469C31.2732 4.63953 31.7677 4.63953 32.0728 4.94469L33.3228 6.19469C33.628 6.49969 33.628 6.99438 33.3228 7.29938C33.1702 7.45188 32.9703 7.52828 32.7703 7.52828Z" fill="#FF7530"/>
<path opacity="0.1" d="M75.3109 61.2425V65.1816C75.3109 66.0441 74.6125 66.7441 73.7484 66.7441H6.25153C5.38746 66.7441 4.68903 66.0441 4.68903 65.1816V61.2425C4.68903 60.38 5.38746 59.68 6.25153 59.68H27.5023C27.729 59.68 27.9447 59.7784 28.0929 59.95L30.1047 62.2737H49.8953L51.907 59.95C52.0554 59.7786 52.2709 59.68 52.4976 59.68H73.7484C74.6125 59.68 75.3109 60.38 75.3109 61.2425V61.2425Z" fill="#43419E"/>
<path d="M70.6318 59.1618H9.36804V20.1408C9.36804 18.6556 10.5719 17.4517 12.0571 17.4517H67.9429C69.428 17.4517 70.632 18.6556 70.632 20.1408V59.1618H70.6318Z" fill="#FF7530"/>
<path d="M66.2231 51.7152H13.7769C13.3454 51.7152 12.9956 51.3653 12.9956 50.9339V22.1166C12.9956 21.6852 13.3454 21.3353 13.7769 21.3353H66.2231C66.6545 21.3353 67.0044 21.6852 67.0044 22.1166V50.9341C67.0044 51.3655 66.6545 51.7152 66.2231 51.7152Z" fill="white"/>
<path d="M67.0046 41.719V50.9346C67.0046 51.3659 66.6546 51.7159 66.2234 51.7159H13.7765C13.3452 51.7159 12.9952 51.3659 12.9952 50.9346V41.719H67.0046Z" fill="white"/>
<path d="M17.4764 4.72681V41.719H54.4702L17.4764 4.72681ZM24.8999 22.4581L43.2077 40.7643H24.8999V22.4581Z" fill="white"/>
<path d="M27.689 45.3986H31.5202V59.1611H27.689V45.3986Z" fill="#FF7530"/>
<path d="M31.5204 45.399H35.3519V59.1618H31.5204V45.399Z" fill="white"/>
<path d="M35.3514 45.3986H39.1826V59.1611H35.3514V45.3986Z" fill="#FF7530"/>
<path d="M75.3109 57.0237V60.9628C75.3109 61.8253 74.6125 62.5253 73.7484 62.5253H6.25153C5.38746 62.5253 4.68903 61.8253 4.68903 60.9628V57.0237C4.68903 56.1612 5.38746 55.4612 6.25153 55.4612H27.5023C27.729 55.4612 27.9447 55.5597 28.0929 55.7312L30.1047 58.055H49.8953L51.907 55.7312C52.0554 55.5598 52.2709 55.4612 52.4976 55.4612H73.7484C74.6125 55.4612 75.3109 56.1612 75.3109 57.0237V57.0237Z" fill="white"/>
<path d="M59.0536 45.3989H18.2578C17.8264 45.3989 17.4766 45.0491 17.4766 44.6177V3.82191C17.4766 3.12581 18.3181 2.77738 18.8103 3.26941L59.6061 44.0652C60.0981 44.5574 59.7495 45.3989 59.0536 45.3989ZM24.9008 37.9747H43.208L24.9008 19.6675V37.9747Z" fill="white"/>
<path d="M52.4479 29.9523H62.9979C63.4295 29.9523 63.7792 29.6024 63.7792 29.171C63.7792 28.7396 63.4295 28.3898 62.9979 28.3898H52.4479C52.0164 28.3898 51.6667 28.7396 51.6667 29.171C51.6667 29.6024 52.0164 29.9523 52.4479 29.9523Z" fill="#43419E"/>
<path d="M56.5625 32.6869H62.9978C63.4294 32.6869 63.7791 32.3371 63.7791 31.9057C63.7791 31.4742 63.4294 31.1244 62.9978 31.1244H56.5625C56.1309 31.1244 55.7812 31.4742 55.7812 31.9057C55.7812 32.3371 56.1309 32.6869 56.5625 32.6869Z" fill="#43419E"/>
<path d="M56.5625 35.4218H62.9978C63.4294 35.4218 63.7791 35.072 63.7791 34.6406C63.7791 34.2092 63.4294 33.8593 62.9978 33.8593H56.5625C56.1309 33.8593 55.7812 34.2092 55.7812 34.6406C55.7812 35.072 56.1309 35.4218 56.5625 35.4218Z" fill="#43419E"/>
<path d="M62.756 25.7256C63.1875 25.7256 63.5373 25.3758 63.5373 24.9444C63.5373 24.5129 63.1875 24.1631 62.756 24.1631C62.3246 24.1631 61.9748 24.5129 61.9748 24.9444C61.9748 25.3758 62.3246 25.7256 62.756 25.7256Z" fill="#43419E"/>
<path d="M60.217 25.7256C60.6485 25.7256 60.9982 25.3758 60.9982 24.9444C60.9982 24.5129 60.6485 24.1631 60.217 24.1631C59.7855 24.1631 59.4357 24.5129 59.4357 24.9444C59.4357 25.3758 59.7855 25.7256 60.217 25.7256Z" fill="#43419E"/>
<path d="M39.1845 37.9914H27.6899V25.8228C27.6899 25.6922 27.7212 25.5633 27.781 25.4472L33.0729 15.1818C33.2256 14.8858 33.6488 14.8858 33.8015 15.1818L39.0934 25.4472C39.1532 25.5633 39.1845 25.6922 39.1845 25.8228V37.9914Z" fill="white"/>
<path d="M27.6889 37.9914H31.5205V27.5397C31.5205 26.4817 30.6628 25.6239 29.6047 25.6239C28.5467 25.6239 27.6889 26.4815 27.6889 27.5397V37.9914Z" fill="#FF7530"/>
<path d="M31.5205 37.9914H35.3521V27.5397C35.3521 26.4817 34.4944 25.6239 33.4363 25.6239C32.3783 25.6239 31.5205 26.4815 31.5205 27.5397V37.9914Z" fill="white"/>
<path d="M35.3521 37.9914H39.1837V27.5397C39.1837 26.4817 38.326 25.6239 37.2679 25.6239C36.2099 25.6239 35.3521 26.4815 35.3521 27.5397V37.9914Z" fill="#FF7530"/>
<path d="M36.33 20.0891C35.5593 20.6087 34.5462 20.9244 33.4362 20.9244C32.3254 20.9244 31.3122 20.6087 30.5417 20.0891L33.0715 15.182C33.2248 14.8861 33.6478 14.8861 33.8003 15.182L36.33 20.0891Z" fill="#FF7530"/>
<path d="M73.7484 54.6799H71.4131V50.8806C71.4131 50.449 71.0634 50.0993 70.6318 50.0993C70.2003 50.0993 69.8506 50.449 69.8506 50.8806V54.6799H52.4976C52.0439 54.6799 51.6131 54.8768 51.3161 55.2198L49.5381 57.2737H39.9645V46.1804H41.0987C41.5303 46.1804 41.88 45.8307 41.88 45.3992C41.88 44.9676 41.5303 44.6179 41.0987 44.6179H39.1848C39.1843 44.6179 39.1839 44.6177 39.1832 44.6177C39.1826 44.6177 39.1823 44.6179 39.1817 44.6179H27.6901C27.6897 44.6179 27.6892 44.6177 27.6886 44.6177C27.6879 44.6177 27.6876 44.6179 27.687 44.6179H18.2573V39.8165H19.5312C19.9626 39.8165 20.3125 39.4668 20.3125 39.0353C20.3125 38.6037 19.9626 38.254 19.5312 38.254H18.2578V35.624H19.5312C19.9626 35.624 20.3125 35.2743 20.3125 34.8428C20.3125 34.4112 19.9626 34.0615 19.5312 34.0615H18.2578V31.4315H19.5312C19.9626 31.4315 20.3125 31.0818 20.3125 30.6502C20.3125 30.2187 19.9626 29.869 19.5312 29.869H18.2578V27.239H19.5312C19.9626 27.239 20.3125 26.8893 20.3125 26.4577C20.3125 26.0262 19.9626 25.6765 19.5312 25.6765H18.2578V23.0465H19.5312C19.9626 23.0465 20.3125 22.6968 20.3125 22.2652C20.3125 21.8337 19.9626 21.484 19.5312 21.484H18.2578V18.854H19.5312C19.9626 18.854 20.3125 18.5043 20.3125 18.0727C20.3125 17.6412 19.9626 17.2915 19.5312 17.2915H18.2578V14.6615H19.5312C19.9626 14.6615 20.3125 14.3118 20.3125 13.8802C20.3125 13.4487 19.9626 13.099 19.5312 13.099H18.2578V10.469H19.5312C19.9626 10.469 20.3125 10.1193 20.3125 9.68775C20.3125 9.25618 19.9626 8.9065 19.5312 8.9065H18.2578V3.82196L31.317 16.8812L28.5625 22.2245L25.4531 19.1152C25.2297 18.8917 24.8936 18.8248 24.6017 18.9459C24.3098 19.0667 24.1195 19.3517 24.1195 19.6676V37.9748C24.1195 38.4063 24.4693 38.756 24.9007 38.756H27.529C27.5807 38.7668 27.634 38.7726 27.6889 38.7726H39.1834C39.2382 38.7726 39.2917 38.7667 39.3432 38.756H43.2078C43.5237 38.756 43.8087 38.5657 43.9295 38.2737C44.0504 37.9818 43.9837 37.6457 43.7601 37.4224L39.9645 33.6268V25.8229C39.9645 25.7118 39.9506 25.601 39.9276 25.4923L59.0532 44.6179H45.88C45.4484 44.6179 45.0987 44.9676 45.0987 45.3992C45.0987 45.8307 45.4484 46.1804 45.88 46.1804H59.0532C59.6876 46.1804 60.2542 45.8018 60.4968 45.2157C60.7397 44.6298 60.6065 43.9615 60.1581 43.5131L37.7142 21.0688L36.2523 18.2329H67.9428C68.9947 18.2329 69.8506 19.0888 69.8506 20.1407V46.0992C69.8506 46.5307 70.2003 46.8804 70.6318 46.8804C71.0634 46.8804 71.4131 46.5307 71.4131 46.0992V20.1406C71.4131 18.227 69.8564 16.6702 67.9428 16.6702H35.4468L34.495 14.8238C34.2898 14.4257 33.884 14.1784 33.4362 14.1784C32.9884 14.1784 32.5828 14.4257 32.3775 14.8238L32.0686 15.4229L19.3625 2.71712C18.914 2.26884 18.2453 2.13571 17.6598 2.37853C17.0739 2.62134 16.6953 3.1879 16.6953 3.82212V16.6704H12.057C10.1434 16.6704 8.58684 18.2271 8.58684 20.1407V54.6799H6.25153C4.95918 54.6799 3.90778 55.7313 3.90778 57.0237V60.9628C3.90778 62.2551 4.95918 63.3065 6.25153 63.3065H73.7484C75.0407 63.3065 76.0922 62.2551 76.0922 60.9628V57.0237C76.0922 55.7312 75.0409 54.6798 73.7484 54.6799V54.6799ZM25.682 21.5537L27.8107 23.6824L27.0856 25.0893C26.9692 25.3152 26.9078 25.5688 26.9078 25.8227V37.1934H25.682V21.5537ZM41.3218 37.1935H39.9647V35.8365L41.3218 37.1935ZM33.4362 16.1802L38.3979 25.8051C38.4007 25.8106 38.4023 25.8168 38.4023 25.8229V37.1935H28.4703V25.8229C28.4703 25.8168 28.4718 25.8106 28.4745 25.8052L33.4362 16.1802ZM38.4022 57.2737H30.4615L28.6837 55.2199C28.6189 55.1449 28.5465 55.0784 28.4701 55.0179V46.1804H38.4022V57.2737ZM10.1493 20.1407C10.1493 19.0888 11.0051 18.2329 12.057 18.2329H16.6953V44.6177C16.6953 45.4793 17.3962 46.1802 18.2578 46.1802H26.9076V54.6798H10.1493V20.1407ZM74.5297 60.9628C74.5297 61.3935 74.1792 61.744 73.7484 61.744H6.25153C5.82074 61.744 5.47028 61.3935 5.47028 60.9628V57.0237C5.47028 56.5929 5.82074 56.2424 6.25153 56.2424H27.5023L29.514 58.5662C29.6625 58.7376 29.8779 58.8362 30.1047 58.8362H49.8953C50.122 58.8362 50.3376 58.7376 50.4859 58.5662L52.4976 56.2424H73.7484C74.1792 56.2424 74.5297 56.5929 74.5297 57.0237V60.9628Z" fill="#43419E"/>
<path d="M39.1835 28.3208C38.752 28.3208 38.4023 27.9709 38.4023 27.5395C38.4023 26.9141 37.8934 26.405 37.2678 26.405C36.6421 26.405 36.1332 26.9139 36.1332 27.5395C36.1332 27.9709 35.7835 28.3208 35.352 28.3208C34.9204 28.3208 34.5707 27.9709 34.5707 27.5395C34.5707 26.9141 34.0617 26.405 33.436 26.405C32.8104 26.405 32.3015 26.9139 32.3015 27.5395C32.3015 27.9709 31.9518 28.3208 31.5203 28.3208C31.0887 28.3208 30.739 27.9709 30.739 27.5395C30.739 26.9141 30.2301 26.405 29.6045 26.405C28.9788 26.405 28.4698 26.9139 28.4698 27.5395C28.4698 27.9709 28.1201 28.3208 27.6885 28.3208C27.257 28.3208 26.9073 27.9709 26.9073 27.5395C26.9073 26.0524 28.1171 24.8425 29.6045 24.8425C30.3529 24.8425 31.0312 25.1489 31.5203 25.643C32.0093 25.1489 32.6876 24.8425 33.436 24.8425C34.1845 24.8425 34.8628 25.1489 35.352 25.643C35.841 25.1489 36.5193 24.8425 37.2678 24.8425C38.7549 24.8425 39.9648 26.0524 39.9648 27.5395C39.9648 27.9709 39.6151 28.3208 39.1835 28.3208Z" fill="#43419E"/>
<defs>
<linearGradient id="paint0_linear" x1="78.6675" y1="84.4317" x2="3.19127" y2="-2.29567" gradientUnits="userSpaceOnUse">
<stop stop-color="#FFECE2" stop-opacity="0"/>
<stop offset="1" stop-color="#FFCCB2"/>
</linearGradient>
</defs>
</svg>
