<svg width="80" height="80" viewBox="0 0 80 80" fill="none" xmlns="http://www.w3.org/2000/svg">
<g clip-path="url(#clip0)">
<path d="M14.6377 0.390559C23.3355 -1.0971 42.4967 2.29415 45.8883 16.7995C48.1431 26.4435 48.0769 34.3112 53.7675 34.4588C57.1534 34.5467 58.9191 27.5354 63.5939 26.9587C69.695 26.206 73.9291 31.286 76.5716 35.8865C82.3848 46.0071 80.567 63.2174 72.9225 71.6102C54.4088 91.9362 32.423 70.6804 23.0228 54.062C16.9939 43.4037 3.39206 34.7882 0.55925 22.7732C-1.81231 12.7145 3.45034 2.304 14.6377 0.390559Z" fill="url(#paint0_linear)"/>
<path opacity="0.1" d="M71.1671 70.6456H8.83276C7.53839 70.6456 6.48901 69.5962 6.48901 68.3018V19.1978C6.48901 17.9034 7.53839 16.854 8.83276 16.854H71.1671C72.4615 16.854 73.5109 17.9034 73.5109 19.1978V68.3018C73.5109 69.5964 72.4617 70.6456 71.1671 70.6456Z" fill="#43419E"/>
<path d="M73.5109 15.4483V64.5515C73.5109 65.8468 72.4609 66.8952 71.1671 66.8952H8.83276C7.53901 66.8952 6.48901 65.8468 6.48901 64.5515V15.4483C6.48901 14.153 7.53901 13.1046 8.83276 13.1046H71.1671C72.4609 13.1046 73.5109 14.153 73.5109 15.4483Z" fill="white"/>
<path d="M15.375 23.9343C15.375 28.8421 11.3968 32.8218 6.48901 32.8218V23.9343H15.375Z" fill="white"/>
<path d="M40.056 50.6031L23.764 66.8952H8.83276C7.53839 66.8952 6.48901 65.8458 6.48901 64.5514V49.1921L22.567 33.1141C27.3965 28.2845 35.2265 28.2845 40.056 33.1141C44.8854 37.9436 44.8854 45.7738 40.056 50.6031Z" fill="white"/>
<path d="M73.5109 23.9342V15.4478C73.5109 14.1534 72.4615 13.104 71.1671 13.104H8.83276C7.53839 13.104 6.48901 14.1534 6.48901 15.4478V23.9342H73.5109Z" fill="#FF7530"/>
<path d="M71.1673 12.3228H8.83276C7.10964 12.3228 5.70776 13.7247 5.70776 15.4478V49.192V64.5514V64.5518C5.70776 66.275 7.10964 67.6768 8.83276 67.6768H71.1673C72.8904 67.6768 74.2923 66.275 74.2923 64.5518V15.4478C74.2923 13.7247 72.8904 12.3228 71.1673 12.3228V12.3228ZM8.83276 66.1139C7.9712 66.1139 7.27026 65.4129 7.27026 64.5514V49.5156L23.1195 33.6664C25.3076 31.4783 28.217 30.2731 31.3115 30.2731C34.406 30.2731 37.3154 31.4783 39.5035 33.6664C41.6917 35.8547 42.8968 38.7639 42.8968 41.8586C42.8968 44.9533 41.6917 47.8625 39.5035 50.0508L23.4404 66.1139H8.83276ZM72.7298 64.5518C72.7298 65.4134 72.0289 66.1143 71.1673 66.1143H25.6496L40.6084 51.1556C43.0917 48.6723 44.4593 45.3708 44.4593 41.8587C44.4593 38.3467 43.0917 35.0451 40.6084 32.5618C38.1251 30.0784 34.8234 28.7109 31.3115 28.7109C27.7996 28.7109 24.4979 30.0786 22.0146 32.5618L7.27026 47.3059V33.5687C12.2365 33.1692 16.1562 29.0023 16.1562 23.9342C16.1562 23.5026 15.8064 23.1529 15.375 23.1529C14.9435 23.1529 14.5937 23.5026 14.5937 23.9342C14.5937 28.1404 11.3739 31.6076 7.27026 32.0022V15.4478C7.27026 14.5862 7.9712 13.8853 8.83276 13.8853H71.1673C72.0289 13.8853 72.7298 14.5862 72.7298 15.4478V64.5518Z" fill="#43419E"/>
<path d="M13.3785 20.5731C14.3192 20.5731 15.0818 19.8105 15.0818 18.8698C15.0818 17.9291 14.3192 17.1665 13.3785 17.1665C12.4378 17.1665 11.6753 17.9291 11.6753 18.8698C11.6753 19.8105 12.4378 20.5731 13.3785 20.5731Z" fill="white"/>
<path d="M18.8162 20.5731C19.7569 20.5731 20.5194 19.8105 20.5194 18.8698C20.5194 17.9291 19.7569 17.1665 18.8162 17.1665C17.8755 17.1665 17.1129 17.9291 17.1129 18.8698C17.1129 19.8105 17.8755 20.5731 18.8162 20.5731Z" fill="white"/>
<path d="M24.2537 20.5731C25.1944 20.5731 25.957 19.8105 25.957 18.8698C25.957 17.9291 25.1944 17.1665 24.2537 17.1665C23.313 17.1665 22.5504 17.9291 22.5504 18.8698C22.5504 19.8105 23.313 20.5731 24.2537 20.5731Z" fill="white"/>
<path d="M67.5434 20.7834H46.2686V16.956H67.5434C67.9748 16.956 68.3247 17.3059 68.3247 17.7373V20.0023C68.3247 20.4337 67.9748 20.7834 67.5434 20.7834Z" fill="white"/>
<path d="M46.3733 17.0047C45.5473 16.1787 44.2034 16.1787 43.3775 17.0047C42.5515 17.8306 42.5515 19.1745 43.3775 20.0004C44.0083 20.6312 44.9404 20.7786 45.7139 20.4461L46.3933 21.1254C46.6983 21.4304 47.1931 21.4304 47.4981 21.1254C47.8033 20.8204 47.8033 20.3256 47.4981 20.0206L46.8187 19.3412C47.1514 18.5676 47.004 17.6354 46.3733 17.0047V17.0047ZM44.4823 18.1095C44.699 17.8928 45.0517 17.8928 45.2684 18.1095C45.4851 18.3262 45.4851 18.6789 45.2684 18.8956C45.0517 19.1123 44.699 19.1123 44.4823 18.8956C44.2656 18.6789 44.2656 18.3262 44.4823 18.1095Z" fill="#43419E"/>
<path d="M38.5178 54.5857C38.4523 54.3521 38.1784 54.2452 37.9752 54.3775C37.5998 54.6214 37.2678 54.7433 36.9788 54.7433C36.6419 54.7433 36.4155 54.6141 36.2991 54.3549C36.1825 54.0964 36.1244 53.6558 36.1244 53.0344V43.1947C36.1244 41.771 36.0272 40.6446 35.8331 39.8157C35.6389 38.9872 35.2566 38.2882 34.6873 37.7183C34.0659 37.0969 33.2891 36.6569 32.3569 36.3977C30.3327 35.835 28.1709 35.8475 26.1211 36.2658C24.4189 36.6132 22.535 37.2539 21.5013 38.7475C20.1816 40.6543 21.3945 43.583 23.812 43.5832C26.8161 43.5833 27.9964 39.7135 25.4038 38.1075C26.1091 37.8247 27.4516 37.4339 28.7828 37.8508C29.8183 38.175 30.5289 39.1416 30.5314 40.2268V40.243V43.2725C30.5314 43.9716 30.2013 44.5221 29.5411 44.9233C26.8102 46.5825 22.9834 46.7099 20.8798 49.351C19.8339 50.6641 19.6733 52.5913 20.2728 54.1436C21.0389 56.1272 22.8692 56.9053 24.8997 56.9053C27.4108 56.9053 29.3141 55.8568 30.6091 53.7594C30.6345 54.7177 30.9325 55.4818 31.5023 56.051C32.0717 56.6208 33.0688 56.9053 34.493 56.9053C36.0823 56.9053 37.4413 56.4782 38.5688 55.6235C38.688 55.5332 38.7403 55.3793 38.6998 55.2352L38.5178 54.5857ZM30.5313 51.3774C29.7798 52.4394 29.1125 53.0519 28.0067 53.2874C27.2159 53.4558 25.4822 53.1786 25.4822 51.3119C25.4822 49.5188 27.5406 48.6703 28.5505 48.0228C29.5603 47.4014 30.2206 46.8322 30.5314 46.3139V51.3774H30.5313Z" fill="#FF7530"/>
<path d="M41.7853 31.8278H26.5108C25.5698 31.8278 24.807 31.065 24.807 30.124C24.807 29.1831 25.5698 28.4203 26.5108 28.4203H41.7853C42.7262 28.4203 43.489 29.1831 43.489 30.124C43.4889 31.0651 42.7262 31.8278 41.7853 31.8278Z" fill="#FF7530"/>
<path d="M59.9286 31.8278H52.6228C51.6819 31.8278 50.9191 31.065 50.9191 30.124C50.9191 29.1831 51.6819 28.4203 52.6228 28.4203H59.9286C60.8695 28.4203 61.6324 29.1831 61.6324 30.124C61.6324 31.0651 60.8695 31.8278 59.9286 31.8278Z" fill="#FF7530"/>
<path d="M45.9153 33.0098C45.7893 33.0098 45.6616 32.9793 45.543 32.9148C45.1638 32.7088 45.0236 32.2343 45.2297 31.8554L47.4294 27.8088C47.6353 27.4296 48.1096 27.289 48.4888 27.4956C48.868 27.7015 49.0082 28.1759 48.8021 28.5549L46.6024 32.6015C46.461 32.8621 46.1925 33.0098 45.9153 33.0098Z" fill="#43419E"/>
<path d="M64.4539 42.6366H48.0975C47.6661 42.6366 47.3163 42.9865 47.3163 43.4179C47.3163 43.8493 47.6661 44.1991 48.0975 44.1991H64.4539C64.8853 44.1991 65.2352 43.8493 65.2352 43.4179C65.2352 42.9865 64.8853 42.6366 64.4539 42.6366Z" fill="#43419E"/>
<path d="M60.7039 39.6012H48.0975C47.6661 39.6012 47.3163 39.951 47.3163 40.3824C47.3163 40.8138 47.6661 41.1637 48.0975 41.1637H60.7039C61.1353 41.1637 61.4852 40.8138 61.4852 40.3824C61.4852 39.9508 61.1353 39.6012 60.7039 39.6012V39.6012Z" fill="#43419E"/>
<path d="M49.9227 35.9533H48.0975C47.6661 35.9533 47.3163 36.3031 47.3163 36.7345C47.3163 37.1659 47.6661 37.5158 48.0975 37.5158H49.9227C50.3541 37.5158 50.7039 37.1659 50.7039 36.7345C50.7039 36.3031 50.3541 35.9533 49.9227 35.9533Z" fill="#43419E"/>
<path d="M21.7903 57.9609H16.6839C16.2525 57.9609 15.9026 58.3108 15.9026 58.7422C15.9026 59.1736 16.2525 59.5234 16.6839 59.5234H21.7903C22.2217 59.5234 22.5715 59.1736 22.5715 58.7422C22.5715 58.3108 22.2219 57.9609 21.7903 57.9609Z" fill="#43419E"/>
<path d="M40.0356 39.6012H34.9292C34.4978 39.6012 34.1479 39.951 34.1479 40.3824C34.1479 40.8138 34.4978 41.1637 34.9292 41.1637H40.0356C40.467 41.1637 40.8168 40.8138 40.8168 40.3824C40.8168 39.9508 40.467 39.6012 40.0356 39.6012V39.6012Z" fill="#43419E"/>
<path d="M64.4539 52.2267H48.0975C47.6661 52.2267 47.3163 52.5765 47.3163 53.0079C47.3163 53.4393 47.6661 53.7892 48.0975 53.7892H64.4539C64.8853 53.7892 65.2352 53.4393 65.2352 53.0079C65.2352 52.5763 64.8853 52.2267 64.4539 52.2267Z" fill="#43419E"/>
<path d="M64.4539 49.191H48.0975C47.6661 49.191 47.3163 49.5408 47.3163 49.9722C47.3163 50.4037 47.6661 50.7535 48.0975 50.7535H64.4539C64.8853 50.7535 65.2352 50.4037 65.2352 49.9722C65.2352 49.5408 64.8853 49.191 64.4539 49.191Z" fill="#43419E"/>
<path d="M56.5153 60.9525H48.5083C48.0769 60.9525 47.727 60.6026 47.727 60.1712V58.7422C47.727 58.3108 48.0769 57.9609 48.5083 57.9609H56.5153C56.9469 57.9609 57.2966 58.3108 57.2966 58.7422V60.1712C57.2966 60.6026 56.9469 60.9525 56.5153 60.9525Z" fill="#FF7530"/>
<path d="M34.9295 38.7107C35.3612 38.7107 35.7111 38.3607 35.7111 37.9291C35.7111 37.4975 35.3612 37.1475 34.9295 37.1475C34.4979 37.1475 34.1479 37.4975 34.1479 37.9291C34.1479 38.3607 34.4979 38.7107 34.9295 38.7107Z" fill="#43419E"/>
<path d="M22.5458 56.253C22.6144 55.8269 22.3247 55.4259 21.8986 55.3573C21.4726 55.2887 21.0716 55.5784 21.003 56.0044C20.9343 56.4305 21.2241 56.8315 21.6501 56.9001C22.0761 56.9687 22.4771 56.679 22.5458 56.253Z" fill="#43419E"/>
<path d="M42.758 9.25453C41.5267 9.25453 40.525 8.25281 40.525 7.02141C40.525 5.79016 41.5267 4.78844 42.758 4.78844C43.9894 4.78844 44.9911 5.79016 44.9911 7.02141C44.9911 8.25266 43.9894 9.25453 42.758 9.25453ZM42.758 6.35094C42.3883 6.35094 42.0875 6.65172 42.0875 7.02141C42.0875 7.39109 42.3883 7.69203 42.758 7.69203C43.1277 7.69203 43.4286 7.39109 43.4286 7.02141C43.4286 6.65172 43.1278 6.35094 42.758 6.35094Z" fill="#FF7530"/>
<path d="M34.9294 9.35457C33.6982 9.35457 32.6963 8.35285 32.6963 7.1216C32.6963 5.89019 33.698 4.88847 34.9294 4.88847C36.1607 4.88847 37.1624 5.89019 37.1624 7.1216C37.1626 8.35285 36.1608 9.35457 34.9294 9.35457V9.35457ZM34.9294 6.45097C34.5598 6.45097 34.2588 6.75191 34.2588 7.1216C34.2588 7.49128 34.5596 7.79207 34.9294 7.79207C35.2991 7.79207 35.5999 7.49128 35.5999 7.1216C35.5999 6.75191 35.2993 6.45097 34.9294 6.45097V6.45097Z" fill="#FF7530"/>
<path d="M15.2535 74.8639C14.8221 74.8639 14.4723 74.5143 14.4723 74.0827C14.4723 73.5657 14.0518 73.1452 13.5348 73.1452C13.1034 73.1452 12.7535 72.7955 12.7535 72.3639C12.7535 71.9324 13.1034 71.5827 13.5348 71.5827C14.0518 71.5827 14.4723 71.1622 14.4723 70.6452C14.4723 70.2136 14.8221 69.864 15.2535 69.864C15.6849 69.864 16.0348 70.2136 16.0348 70.6452C16.0348 71.1622 16.4553 71.5827 16.9723 71.5827C17.4037 71.5827 17.7535 71.9324 17.7535 72.3639C17.7535 72.7955 17.4037 73.1452 16.9723 73.1452C16.4553 73.1452 16.0348 73.5657 16.0348 74.0827C16.0348 74.5143 15.6849 74.8639 15.2535 74.8639Z" fill="#FF7530"/>
<path d="M50.7039 7.034C50.2723 7.034 49.9226 6.68431 49.9226 6.25275C49.9226 5.73572 49.5022 5.31525 48.9851 5.31525C48.5536 5.31525 48.2039 4.96556 48.2039 4.534C48.2039 4.10243 48.5536 3.75275 48.9851 3.75275C49.5022 3.75275 49.9226 3.33228 49.9226 2.81525C49.9226 2.38368 50.2723 2.034 50.7039 2.034C51.1355 2.034 51.4851 2.38368 51.4851 2.81525C51.4851 3.33228 51.9056 3.75275 52.4226 3.75275C52.8542 3.75275 53.2039 4.10243 53.2039 4.534C53.2039 4.96556 52.8542 5.31525 52.4226 5.31525C51.9056 5.31525 51.4851 5.73572 51.4851 6.25275C51.4851 6.68415 51.1355 7.034 50.7039 7.034Z" fill="#FF7530"/>
<path d="M22.5717 76.3158C22.1403 76.3158 21.7905 75.9661 21.7905 75.5345C21.7905 75.0175 21.37 74.597 20.853 74.597C20.4216 74.597 20.0717 74.2473 20.0717 73.8158C20.0717 73.3842 20.4216 73.0345 20.853 73.0345C21.37 73.0345 21.7905 72.614 21.7905 72.097C21.7905 71.6654 22.1403 71.3158 22.5717 71.3158C23.0031 71.3158 23.353 71.6654 23.353 72.097C23.353 72.614 23.7734 73.0345 24.2905 73.0345C24.7219 73.0345 25.0717 73.3842 25.0717 73.8158C25.0717 74.2473 24.7219 74.597 24.2905 74.597C23.7734 74.597 23.353 75.0175 23.353 75.5345C23.353 75.9661 23.0031 76.3158 22.5717 76.3158Z" fill="#FF7530"/>
</g>
<defs>
<linearGradient id="paint0_linear" x1="80.0002" y1="39.9999" x2="0.000189033" y2="39.9999" gradientUnits="userSpaceOnUse">
<stop stop-color="#FFECE2" stop-opacity="0"/>
<stop offset="1" stop-color="#FFCCB2"/>
</linearGradient>
<clipPath id="clip0">
<rect width="80" height="80" fill="white"/>
</clipPath>
</defs>
</svg>
